<?xml version="1.0" standalone="no"?>
<!DOCTYPE svg PUBLIC "-//W3C//DTD SVG 1.1//EN" "http://www.w3.org/Graphics/SVG/1.1/DTD/svg11.dtd" >
<svg>
<metadata>
Created by FontForge 20120731 at Wed Jul  4 03:18:53 2018
 By www
Part of this font software is copyrighted (c) 2006 Linotype GmbH, www.linotype.com. All rights reserved. This font software may not be reproduced, modified, disclosed or transferred without the express written approval of Linotype GmbH. Copyright Esselte Letraset Ltd., 1990.
</metadata>
<defs>
<font id="SavoyeW01" horiz-adv-x="500" >
  <font-face 
    font-family="SavoyeW01"
    font-weight="400"
    font-stretch="normal"
    units-per-em="1000"
    panose-1="2 8 5 2 4 7 5 13 12 2"
    ascent="800"
    descent="-200"
    x-height="277"
    cap-height="658"
    bbox="-166 -198 1059 776"
    underline-thickness="50"
    underline-position="-100"
    unicode-range="U+0002-E308"
  />
<missing-glyph horiz-adv-x="173" 
 />
    <glyph glyph-name=".notdef" horiz-adv-x="173" 
 />
    <glyph glyph-name=".null" horiz-adv-x="0" 
 />
    <glyph glyph-name="uni000D" unicode="&#xd;" horiz-adv-x="0" 
 />
    <glyph glyph-name="glyph234" horiz-adv-x="0" 
 />
    <glyph glyph-name="glyph234" horiz-adv-x="0" 
 />
    <glyph glyph-name="uni0002" horiz-adv-x="0" 
 />
    <glyph glyph-name="uni0009" unicode="&#x9;" horiz-adv-x="0" 
 />
    <glyph glyph-name="uni000A" unicode="&#xa;" horiz-adv-x="0" 
 />
    <glyph glyph-name="space" unicode=" " horiz-adv-x="173" 
 />
    <glyph glyph-name="exclam" unicode="!" horiz-adv-x="264" 
d="M149 589l65 29l-124 -498l-14 -6zM70 73q17 0 28 -11t11 -28t-11 -28.5t-28 -11.5t-28.5 11.5t-11.5 28.5t11.5 28t28.5 11z" />
    <glyph glyph-name="quotedbl" unicode="&#x22;" horiz-adv-x="122" 
d="M29 369l1 10q1 14 4.5 19t11.5 5q14 0 14 -14q0 -4 -2 -11t-5 -17l-20 -56h-8zM77 369v10q2 14 5 19t11 5q15 0 15 -14q0 -7 -8 -28l-19 -56h-8z" />
    <glyph glyph-name="numbersign" unicode="#" horiz-adv-x="400" 
d="M211 240l60 176h-81l-60 -176h81zM80 202h-80l8 38h85l61 176h-86l7 36h91l69 198h36l-69 -198h82l69 198h36l-69 -198h79l-7 -36h-84l-60 -176h86l-7 -36h-91l-70 -204h-38l70 204h-80l-70 -204h-37z" />
    <glyph glyph-name="dollar" unicode="$" horiz-adv-x="284" 
d="M58 -4q-26 4 -49 17.5t-37 33.5l29 31q17 -38 62 -57l37 180l-2 2q-27 28 -38.5 50t-11.5 45q0 19 7 36.5t20 31t29.5 22.5t36.5 11l10 51h11l-10 -50q1 0 3.5 0.5t4.5 0.5q3 0 5 -0.5t4 -0.5l11 50h11l-10 -52q44 -9 70 -44l-24 -26q-23 34 -51 46l-33 -161l2 -2
q30 -29 42.5 -53t12.5 -52q0 -42 -28.5 -72.5t-73.5 -37.5l-11 -52h-11l10 51h-17l-10 -51h-12zM165 378q-5 2 -8 2.5t-8 0.5l-30 -145l14 -14zM124 177l-15 14l-35 -173q6 -2 9 -2t7 -1zM137 382q-28 -2 -47 -20t-19 -43q0 -18 8.5 -34.5t25.5 -35.5l4 -4zM133 166
l-31 -152q33 2 53.5 21.5t20.5 50.5q0 36 -41 78z" />
    <glyph glyph-name="percent" unicode="%" horiz-adv-x="433" 
d="M40 -10l274 390q-16 -11 -29 -15.5t-32 -4.5q-27 0 -58 14q13 -22 13 -57q0 -29 -9 -55t-24 -46t-35 -32t-41 -12q-35 0 -55.5 23t-20.5 64q0 28 9.5 54.5t25 47t36 32.5t42.5 12q10 0 18 -2t26 -10q29 -13 43 -17t31 -4q29 0 52.5 15t37.5 43l14 -10l-307 -438zM366 138
q0 -29 -9 -56t-24 -47t-34.5 -32t-41.5 -12q-35 0 -55.5 23t-20.5 64q0 29 9 55.5t24.5 46.5t36 32t42.5 12q33 0 53 -23t20 -63zM173 340q0 53 -36 53q-30 0 -50 -39q-13 -26 -21 -56.5t-8 -55.5q0 -59 39 -59q15 0 28.5 13.5t24 35t17 50t6.5 58.5zM331 159q0 53 -36 53
q-31 0 -50 -39q-13 -26 -21 -56.5t-8 -55.5q0 -59 39 -59q15 0 28.5 13.5t24 35t17 50t6.5 58.5z" />
    <glyph glyph-name="ampersand" unicode="&#x26;" horiz-adv-x="749" 
d="M676 78q-59 -88 -151 -88q-64 0 -122 35q-75 -38 -150 -38q-46 0 -83.5 12.5t-64.5 35.5t-41.5 55.5t-14.5 71.5q0 59 40 111t118 97l3 2q1 55 16.5 105.5t42.5 82.5q23 28 51 43.5t54 15.5q30 0 49.5 -17.5t19.5 -44.5q0 -60 -88 -116q-4 -3 -8 -5t-10 -5.5t-14.5 -8.5
t-22.5 -13q-26 -15 -35.5 -20.5t-21.5 -10.5q1 -23 7 -48.5t15.5 -52t22.5 -52t28 -47.5q25 -35 52.5 -63.5t62.5 -53.5q25 18 47 41t38 48.5t25 50.5t9 48q0 31 -16.5 50.5t-42.5 19.5q-69 0 -102 -120l-25 38q14 49 47 79t73 30q35 0 59.5 -26.5t24.5 -64.5
q0 -24 -9.5 -51t-26 -54t-39.5 -52t-50 -46q29 -17 53 -25t50 -8q40 0 67 15t56 52zM388 35q-37 24 -68 58.5t-54 76t-37.5 89t-17.5 98.5q-110 -70 -110 -170q0 -38 14 -69.5t38.5 -55t58 -36.5t72.5 -13q54 0 104 22zM243 392q32 17 59.5 33.5t46.5 30.5q27 21 42.5 47.5
t15.5 51.5q0 21 -12 33t-35 12q-24 0 -45 -15t-37 -40.5t-25.5 -60t-9.5 -72.5v-20z" />
    <glyph glyph-name="quotesingle" unicode="'" horiz-adv-x="75" 
d="M29 369l1 10q1 14 4.5 19t11.5 5q14 0 14 -14q0 -4 -2 -11t-5 -17l-20 -56h-8z" />
    <glyph glyph-name="parenleft" unicode="(" horiz-adv-x="333" 
d="M200 -83q-54 20 -82.5 82.5t-28.5 161.5q0 53 10 112.5t28 119t43 114.5t54 98q32 47 68 74.5t71 31.5l-2 -12q-41 -12 -70.5 -41.5t-57.5 -84.5q-21 -42 -40.5 -102.5t-35 -127t-24.5 -131.5t-9 -115q0 -69 18.5 -109.5t60.5 -58.5z" />
    <glyph glyph-name="parenright" unicode=")" horiz-adv-x="333" 
d="M-36 -71q40 11 70.5 41t57.5 85q21 42 41 103t35 127t24.5 131t9.5 115q0 69 -19 109.5t-60 58.5l2 12q54 -20 83 -82.5t29 -161.5q0 -53 -10.5 -113t-28.5 -119t-43 -114t-54 -98q-32 -47 -68 -74.5t-71 -31.5z" />
    <glyph glyph-name="asterisk" unicode="*" horiz-adv-x="233" 
d="M152 548l-46 -49l-9 17l55 47l-59 -3l4 18l56 -2l-34 44l16 13l26 -48l13 68h16l-16 -68l52 48l9 -13l-55 -44l59 2l-4 -18l-61 3l36 -47l-14 -12l-29 48l-14 -70h-16z" />
    <glyph glyph-name="plus" unicode="+" horiz-adv-x="400" 
d="M180 248h-150v38h150v214h40v-214h150v-38h-150v-216h-40v216z" />
    <glyph glyph-name="comma" unicode="," horiz-adv-x="232" 
d="M-4 -69q31 20 51 40t25 37q-8 -6 -13 -8.5t-12 -2.5q-28 0 -28 31q0 20 13 34.5t31 14.5q16 0 26 -11.5t10 -28.5q0 -14 -7.5 -30.5t-20.5 -32t-30.5 -30t-37.5 -24.5z" />
    <glyph glyph-name="hyphen" unicode="-" horiz-adv-x="237" 
d="M28 160h119l-4 -22h-120z" />
    <glyph glyph-name="period" unicode="." horiz-adv-x="232" 
d="M99 42q0 -20 -12.5 -33.5t-29.5 -13.5q-34 0 -34 34q0 20 12 34.5t29 14.5q16 0 25.5 -10t9.5 -26z" />
    <glyph glyph-name="slash" unicode="/" horiz-adv-x="378" 
d="M-10 -70l413 776l12 -6l-413 -776z" />
    <glyph glyph-name="zero" unicode="0" horiz-adv-x="339" 
d="M293 269q0 -54 -21 -112.5t-55 -99.5q-53 -65 -113 -65q-48 0 -76 37t-28 100q0 57 23.5 117.5t64.5 105.5q20 24 46.5 37.5t52.5 13.5q48 0 77 -37t29 -97zM250 296q0 45 -16.5 70.5t-46.5 25.5q-64 0 -108 -113q-18 -46 -28 -93.5t-10 -85.5q0 -47 16.5 -72t47.5 -25
q29 0 53.5 24t48.5 77q20 44 31.5 96.5t11.5 95.5z" />
    <glyph glyph-name="one" unicode="1" horiz-adv-x="192" 
d="M-31 13h14q24 0 33 7t14 30l4 18l41 204l4 18q2 8 2.5 12t0.5 7q0 13 -10 13q-7 0 -23 -8l-41 -22l-3 11l10 7l54 38q20 14 34 24.5t28 21.5h14q-4 -11 -7 -22t-6.5 -24t-7 -30t-8.5 -41l-43 -208q-2 -10 -3.5 -20.5t-1.5 -15.5q0 -12 6 -16t26 -4h18l-3 -13h-148z" />
    <glyph glyph-name="two" unicode="2" horiz-adv-x="295" 
d="M-53 10q15 10 33.5 24t38.5 29.5t39.5 31.5t35.5 30q30 27 51 50t34 44t19 41t6 42q0 39 -20.5 63t-53.5 24q-17 0 -32 -6t-26.5 -16.5t-18 -23.5t-6.5 -28t7.5 -26t21.5 -15q-8 -14 -25 -14t-27 11t-10 28q0 19 11 38t29 34t41.5 24t47.5 9q47 0 75.5 -27.5t28.5 -72.5
q0 -34 -17 -65t-55 -68q-11 -10 -22 -19.5t-24.5 -20.5t-30.5 -24t-40 -30q-16 -12 -25 -18.5t-23 -17.5q13 2 21 2.5t21 0.5q8 0 17 -0.5t17 -0.5l39 -3q7 -1 13 -1h12q26 0 43 11.5t30 38.5h7l-29 -88q-14 -3 -23.5 -4t-24.5 -1q-12 0 -23.5 0.5t-31.5 2.5q-34 4 -50 5.5
t-30 1.5q-19 0 -34.5 -2.5t-36.5 -7.5v14z" />
    <glyph glyph-name="three" unicode="3" horiz-adv-x="308" 
d="M220 355h-84h-24q-16 0 -26.5 -1.5t-18 -6.5t-14 -13.5t-13.5 -22.5h-10l37 91q8 -3 13.5 -4t13.5 -2q11 -1 26 -1.5t26 -0.5h112l4 -13l-116 -125q42 -11 66 -41.5t24 -72.5q0 -31 -12.5 -58.5t-34 -48t-50 -32.5t-59.5 -12q-47 0 -78.5 23.5t-31.5 58.5q0 20 9.5 32
t26.5 14q-2 -6 -2 -9.5v-8.5q0 -20 7 -37.5t19.5 -30t29.5 -20t36 -7.5q22 0 41.5 9t34.5 24t24 34.5t9 41.5q0 42 -27.5 73.5t-72.5 40.5z" />
    <glyph glyph-name="four" unicode="4" horiz-adv-x="306" 
d="M128 121h-3q-22 5 -39.5 7.5t-33.5 2.5q-21 0 -38 -4.5t-33 -12.5l-8 8q17 15 33.5 38t37.5 59q20 35 32 70.5t12 64.5q0 8 -1 13t-3 13l51 30q0 -5 0.5 -8t0.5 -6q0 -15 -2.5 -29.5t-7.5 -30.5t-14.5 -34t-22.5 -42q-8 -15 -19.5 -32t-23.5 -34t-24.5 -32.5t-23.5 -27.5
l8 3q35 12 57.5 17t42.5 5h12.5t12.5 -2q4 0 7 -1l31 121l15 9l-20 -135h3q17 -4 24 -4.5t18 -0.5q14 0 23 2t26 9l-18 -43q-10 -3 -17.5 -4t-18.5 -1q-18 0 -46 5l-17 -114h-44z" />
    <glyph glyph-name="five" unicode="5" horiz-adv-x="286" 
d="M25 225l57 169q11 2 17 3t16 1q6 0 20 -0.5t29 -2.5q10 -1 20.5 -1.5t16.5 -0.5q21 0 33 6t19 21h10l-24 -68q-9 -2 -15 -2.5t-18 -0.5q-8 0 -21 0.5t-24 1.5l-38 2q-5 1 -9 1h-9h-10.5t-12.5 -2l-28 -80q22 7 42 7q26 0 49 -9.5t39.5 -26.5t26 -40t9.5 -50
q0 -34 -13 -63.5t-35 -51.5t-51.5 -35t-62.5 -13q-42 0 -66.5 19t-24.5 50q0 20 10 32.5t25 12.5q-5 -13 -5 -25q0 -32 22.5 -52.5t57.5 -20.5q24 0 45 9.5t36.5 26t24.5 38.5t9 48q0 23 -8 43t-22 35t-32.5 23.5t-40.5 8.5q-14 0 -26.5 -4t-26.5 -12z" />
    <glyph glyph-name="six" unicode="6" horiz-adv-x="311" 
d="M51 181q44 84 113 84q38 0 61.5 -27t23.5 -72q0 -33 -12.5 -64.5t-33.5 -56t-48 -39.5t-56 -15q-48 0 -73.5 33.5t-25.5 95.5q0 52 18 103t47.5 90.5t67 64t76.5 24.5q27 0 44.5 -14t17.5 -35q0 -16 -11.5 -27.5t-26.5 -11.5q-4 0 -8 1q6 9 8 16.5t2 16.5q0 40 -40 40
q-31 0 -60 -26.5t-52 -74.5q-12 -25 -21 -55.5t-11 -50.5zM40 83q0 -81 58 -81q21 0 40.5 14t34 38t23.5 55t9 64q0 72 -54 72q-44 0 -74 -44q-8 -11 -14.5 -25.5t-11.5 -31t-8 -32.5t-3 -29z" />
    <glyph glyph-name="seven" unicode="7" horiz-adv-x="236" 
d="M2 -4q16 32 27 55t20 40.5t17.5 33t18.5 32.5q33 59 67 111.5t61 86.5h-99h-24q-31 0 -45.5 -8.5t-28.5 -35.5h-9l36 92q16 -5 31.5 -7t48.5 -2h129v-10l-7 -8q-23 -29 -40.5 -53t-32 -47t-26.5 -45.5t-24 -48.5q-22 -45 -34.5 -84t-19.5 -77l-71 -36z" />
    <glyph glyph-name="eight" unicode="8" horiz-adv-x="325" 
d="M192 200q34 -26 47 -46t13 -46q0 -25 -10.5 -46t-28.5 -36.5t-42.5 -24t-53.5 -8.5q-57 0 -92 28.5t-35 74.5q0 39 30 72t81 50q-23 22 -31.5 39.5t-8.5 40.5q0 22 9 40.5t24.5 32.5t36.5 22t45 8q46 0 76 -24.5t30 -61.5q0 -35 -26 -65t-68 -46zM111 210
q-38 -11 -61 -39.5t-23 -64.5q0 -21 8 -39.5t21.5 -32t32.5 -21t40 -7.5q38 0 62.5 23.5t24.5 58.5q0 39 -39 71q-14 12 -32.5 26.5t-33.5 24.5zM177 212q30 11 50.5 39t20.5 59q0 33 -22.5 55.5t-54.5 22.5q-34 0 -57.5 -20t-23.5 -49q0 -25 21 -50.5t66 -56.5z" />
    <glyph glyph-name="nine" unicode="9" horiz-adv-x="306" 
d="M18 -10q69 46 115 99t60 103q-35 -41 -86 -41q-41 0 -65.5 27t-24.5 72q0 30 12 57.5t31.5 48.5t45.5 33.5t54 12.5q47 0 73.5 -30.5t26.5 -84.5q0 -55 -27 -110t-78 -103q-30 -28 -65.5 -53.5t-64.5 -39.5zM61 240q0 -35 15 -55.5t41 -20.5q20 0 39 12t33.5 32.5
t23 47.5t8.5 56q0 37 -16 57.5t-45 20.5q-20 0 -37.5 -12.5t-31.5 -33t-22 -47.5t-8 -57z" />
    <glyph glyph-name="colon" unicode=":" horiz-adv-x="232" 
d="M140 242q0 -20 -12.5 -34t-29.5 -14q-16 0 -25 9.5t-9 25.5q0 20 12 34t29 14q16 0 25.5 -9.5t9.5 -25.5zM99 42q0 -20 -12.5 -33.5t-29.5 -13.5q-34 0 -34 34q0 20 12 34.5t29 14.5q16 0 25.5 -10t9.5 -26z" />
    <glyph glyph-name="semicolon" unicode=";" horiz-adv-x="232" 
d="M141 242q0 -20 -12.5 -34t-29.5 -14q-16 0 -25 9.5t-9 25.5q0 20 12.5 34t29.5 14q15 0 24.5 -9.5t9.5 -25.5zM-4 -69q31 20 51 40t25 37q-8 -6 -13 -8.5t-12 -2.5q-28 0 -28 31q0 20 13 34.5t31 14.5q16 0 26 -11.5t10 -28.5q0 -14 -7.5 -30.5t-20.5 -32t-30.5 -30
t-37.5 -24.5z" />
    <glyph glyph-name="less" unicode="&#x3c;" horiz-adv-x="400" 
d="M30 247v38l340 217v-45l-296 -190v-2l296 -190v-45z" />
    <glyph glyph-name="equal" unicode="=" horiz-adv-x="400" 
d="M30 384h340v-38h-340v38zM30 194h340v-38h-340v38z" />
    <glyph glyph-name="greater" unicode="&#x3e;" horiz-adv-x="400" 
d="M30 75l296 190v2l-296 190v45l340 -217v-38l-340 -217v45z" />
    <glyph glyph-name="question" unicode="?" horiz-adv-x="336" 
d="M157 109h-5q-31 0 -51 20t-20 52q0 39 31 88q9 14 25.5 35.5t48.5 61.5l26 32.5t16.5 21.5t11 15t9.5 12q29 38 40 60.5t11 41.5q0 22 -14.5 36.5t-36.5 14.5q-18 0 -39.5 -10t-43.5 -28t-42 -42t-35 -51l-14 51q31 43 75.5 70t86.5 27q37 0 59.5 -22.5t22.5 -60.5
q0 -37 -25 -84.5t-80 -114.5l-43 -53q-22 -27 -36 -45t-22 -31t-11 -22.5t-3 -18.5q0 -32 36 -32q8 0 15 2t20 7zM103 73q17 0 28.5 -11t11.5 -28t-11.5 -28.5t-28.5 -11.5t-28 11.5t-11 28.5t11 28t28 11z" />
    <glyph glyph-name="at" unicode="@" horiz-adv-x="800" 
d="M634 -140q-51 -24 -105 -38.5t-111 -14.5q-77 0 -144.5 24t-118.5 68.5t-80.5 108t-29.5 143.5q0 79 29 146t80 115.5t119 76t146 27.5q65 0 125.5 -21t107 -60.5t74.5 -95t28 -124.5q0 -53 -19.5 -90t-51.5 -59.5t-73 -32.5t-84 -10q-26 0 -41 15.5t-15 41.5q0 19 5 41
t9 42q-8 -19 -22 -43.5t-33 -46.5t-41 -37t-46 -15q-32 0 -46 22t-14 51q0 20 5 40t13 41q9 19 24 41t34 41t41.5 32t46.5 13q17 0 32.5 -7t24.5 -21l5 19l46 18l-46 -175q-4 -13 -6.5 -26.5t-2.5 -25.5q0 -17 8.5 -30.5t28.5 -13.5q36 0 70.5 11t61.5 33t43.5 54.5
t16.5 75.5q0 64 -27 116.5t-71.5 89.5t-102 57t-117.5 20q-74 0 -134.5 -28t-104.5 -75t-68 -109.5t-24 -132.5q0 -71 26.5 -130t73 -101t108.5 -65.5t133 -23.5q30 0 55.5 2.5t50 8t49 14t51.5 20.5zM360 48q14 0 28 8t26 20t22.5 25.5t17.5 24.5q17 28 27.5 60t17.5 64
q-6 17 -19.5 27.5t-32.5 10.5q-25 0 -47.5 -21.5t-39.5 -51.5t-27 -62.5t-10 -53.5q0 -17 8 -34t29 -17z" />
    <glyph glyph-name="A" unicode="A" horiz-adv-x="652" 
d="M-24 16q13 -2 21 -2.5t18 -0.5q133 0 238 105q42 40 90 115q10 17 22.5 37.5t25 41.5t24 41t19.5 36l46 89q27 52 47 86t36 54t30 28.5t28 8.5q31 0 31 -32q0 -3 -0.5 -8.5t-1.5 -11.5q-1 -14 -3 -19l-75 -351h35l-3 -17h-35l-46 -216h-32q-18 58 -57.5 111.5t-90.5 89.5
q-33 -51 -74 -93t-87.5 -71t-96 -45t-97.5 -16q-8 0 -13.5 0.5t-14.5 2.5zM523 216h-170l2 -1q43 -33 74 -68t62 -84zM526 233l70 332q3 13 3 16q3 10 3 18q0 12 -10 12q-6 0 -13.5 -6t-18.5 -22t-27 -43.5t-38 -70.5q-8 -14 -14 -26.5t-14 -26.5q-9 -17 -11.5 -22t-7.5 -13
l-46 -85q-14 -26 -23 -41.5t-13 -21.5h160z" />
    <glyph glyph-name="B" unicode="B" horiz-adv-x="499" 
d="M139 43q35 -38 88 -38q33 0 63 15.5t52.5 42t36 61.5t13.5 73q0 48 -25.5 75t-68.5 27q-9 0 -15.5 -1t-16.5 -4l4 24q43 24 84.5 63t70.5 84q20 30 29 54t9 49q0 28 -15 45.5t-39 17.5q-44 0 -113 -57q-25 -20 -43.5 -38.5t-32.5 -36.5l-1 -9q-6 -41 -16 -87t-22.5 -94.5
t-27.5 -96.5t-31 -93q-24 -66 -45.5 -97t-43.5 -31q-33 0 -33 55q0 18 3.5 42.5t10 52.5t15 57t19.5 56q24 61 57 116.5t68 96.5q1 7 1.5 12.5t1.5 13t2 17.5t3 25q4 31 5 44.5t2 28.5l50 23l-1 -12q-2 -14 -3 -24t-2 -15l-6 -39v-5t-1 -8q66 66 119.5 99.5t93.5 33.5
q29 0 46 -19.5t17 -53.5q0 -38 -26 -86t-74 -100q-26 -26 -50.5 -48t-45.5 -36q6 1 9.5 1h8.5q53 0 86.5 -31t33.5 -81t-29 -98.5t-79 -82.5q-57 -39 -131 -39q-62 0 -89 25zM167 437q-38 -46 -71 -110.5t-54 -133.5q-13 -42 -21 -81t-8 -62q0 -32 15 -30q11 1 20.5 14.5
t24.5 51.5q17 44 36 105.5t34 124.5q10 39 15 65.5t9 55.5z" />
    <glyph glyph-name="C" unicode="C" horiz-adv-x="482" 
d="M425 113l6 -10q-116 -116 -235 -116q-41 0 -75 14.5t-58 41.5t-37 65t-13 85q0 68 29.5 142.5t84.5 146.5q29 39 62.5 70.5t67.5 54t67 35t62 12.5q35 0 55.5 -20t20.5 -53q0 -29 -15 -59.5t-39.5 -57.5t-57 -48t-68.5 -31l-14 37q36 10 67.5 28.5t55 41t37 47.5t13.5 49
q0 23 -15.5 37.5t-41.5 14.5q-23 0 -49.5 -9.5t-54 -27t-54 -41.5t-50.5 -53q-54 -67 -81.5 -141.5t-27.5 -153.5q0 -92 42.5 -145.5t114.5 -53.5q47 0 91.5 21t101.5 71z" />
    <glyph glyph-name="D" unicode="D" horiz-adv-x="709" 
d="M208 24q-38 -21 -71 -30.5t-68 -9.5q-38 0 -60 13.5t-22 36.5q0 26 27.5 42t72.5 16q23 0 54.5 -6t80.5 -20l12 -3q17 17 30 35t30 50q12 21 22 44t20 50t21 60.5t23 76.5q12 44 19.5 73t13.5 59q-27 21 -59.5 39t-65 30.5t-64 20t-56.5 7.5q-42 0 -66 -18.5t-24 -50.5
q0 -30 28 -60t76 -51l-30 -30q-42 22 -67 57t-25 73q0 24 10 44t28 34.5t42.5 22.5t54.5 8q98 0 228 -80q5 19 8 38.5t4 34.5l54 23q-4 -23 -6.5 -39t-6.5 -30l-9 -42l-4 -15q87 -66 135 -146.5t48 -159.5q0 -51 -18.5 -94t-52 -74t-79 -48.5t-99.5 -17.5q-83 0 -177 33z
M266 52q57 -18 99 -26t78 -8q38 0 71 14.5t57.5 39.5t38.5 59t14 74q0 136 -172 278q-2 -9 -3.5 -16t-4 -16t-5.5 -20.5t-8 -28.5q-9 -30 -15 -49.5t-11 -34t-9.5 -27t-11.5 -29.5q-29 -73 -60 -122t-71 -84zM190 30q-42 13 -78 20t-60 7q-21 0 -33 -7t-12 -20
q0 -14 18.5 -23.5t47.5 -9.5t57.5 8t59.5 25z" />
    <glyph glyph-name="E" unicode="E" horiz-adv-x="501" 
d="M406 48q-63 -29 -122.5 -44.5t-108.5 -15.5q-81 0 -128 34.5t-47 94.5q0 66 59.5 131t169.5 120q-52 9 -52 55q0 65 113 147q56 40 108 62t88 22q26 0 40.5 -14t14.5 -37q0 -35 -24 -79.5t-66 -85.5l-26 28q37 40 57 75t20 59q0 33 -41 33q-25 0 -62.5 -15t-73.5 -40
q-50 -34 -78 -71t-28 -67q0 -14 8.5 -27t22.5 -18q9 -3 18 -4t29 -2h9l-7 -32q-39 -17 -73.5 -37t-74.5 -49q-123 -91 -123 -171q0 -40 30.5 -65t80.5 -25q51 0 118.5 23t160.5 74z" />
    <glyph glyph-name="F" unicode="F" horiz-adv-x="545" 
d="M-25 31q58 -29 111 -29q85 0 151 65q14 13 25 27.5t21.5 31.5t20 38.5t20.5 49.5l1 2h-49l3 17h52l1 3l3 8q9 24 16 46t14.5 46.5t15.5 53.5t17 65q10 40 15 65t10 51l51 23q-3 1 -5 1t-7 1q-60 7 -112.5 10.5t-98.5 3.5q-54 0 -90.5 -7t-59.5 -22q-16 -11 -25.5 -25.5
t-9.5 -29.5q0 -68 173 -79l-34 -34q-71 4 -112.5 33.5t-41.5 74.5q0 29 20 54t56 42q31 15 79.5 23t108.5 8q26 0 63 -2.5t76.5 -6t78.5 -8.5t70 -10l9 -1l-22 -44l-9 1q-23 5 -48 8.5t-53 7.5l-4 1v-3q-5 -23 -13 -56t-17.5 -69t-20.5 -72.5t-20 -64.5q-8 -26 -17.5 -53
t-16.5 -43h118l-4 -17h-121l-1 -2q-48 -114 -129 -173.5t-188 -59.5q-27 0 -46.5 3t-39.5 10z" />
    <glyph glyph-name="G" unicode="G" horiz-adv-x="473" 
d="M35 -146q55 -30 112 -30q43 0 78.5 16.5t58.5 48.5q10 13 17 26.5t13.5 31t12.5 41t13 57.5l8 38l-1 -2q-41 -43 -86.5 -65.5t-92.5 -22.5q-34 0 -62.5 13.5t-49 37.5t-32 57t-11.5 73q0 78 35.5 163t100.5 163q29 35 61.5 63.5t65 49t63.5 31.5t58 11q35 0 56 -20
t21 -55q0 -30 -13.5 -60t-37.5 -56.5t-56.5 -47t-69.5 -32.5l-17 38q37 12 69 30t55.5 40.5t36.5 47.5t13 49q0 23 -17 37.5t-43 14.5q-45 0 -100.5 -34.5t-103.5 -92.5q-29 -34 -51.5 -72.5t-38.5 -79.5t-24.5 -82t-8.5 -80q0 -81 35.5 -129t97.5 -48q36 0 72.5 19.5
t78.5 61.5l2 2l17 84l51 29l-30 -146l-10 -45t-8.5 -32t-10 -25.5t-12.5 -24.5q-18 -33 -43.5 -59.5t-56.5 -45.5t-66 -29t-72 -10q-55 0 -92 17z" />
    <glyph glyph-name="H" unicode="H" horiz-adv-x="689" 
d="M-24 20q29 -9 52.5 -13t46.5 -4q54 0 102.5 27.5t80.5 75.5q23 35 42.5 78.5t39.5 103.5q7 23 15.5 51.5t16 58t14.5 58.5t12 54l17 87l2 9l55 27q-6 -39 -18.5 -94t-28 -111.5t-32.5 -108t-32 -83.5l-1 -3h206l83 399l51 26l-138 -658h-30q-12 33 -31 66.5t-43 62.5
t-50.5 52.5t-53.5 37.5l-1 -3q-28 -63 -67.5 -113.5t-82.5 -76.5q-38 -23 -88.5 -36t-102.5 -13q-15 0 -26 1t-26 4zM562 216h-168q18 -14 37 -32t37.5 -38t34.5 -40.5t28 -38.5z" />
    <glyph glyph-name="I" unicode="I" horiz-adv-x="426" 
d="M-18 26q43 -19 95 -19q63 0 114 42q29 23 50.5 53t45.5 81l3 8q-40 26 -59 70t-19 112q0 47 13.5 98.5t39.5 99.5q22 42 45.5 64.5t45.5 22.5q29 0 45 -34.5t16 -100.5q0 -37 -6.5 -81t-18 -88.5t-26.5 -86.5t-33 -75q8 -4 14.5 -5t14.5 -1q9 0 15.5 1t17.5 5l-4 -14
q-9 -2 -15.5 -3t-16.5 -1t-17 1t-18 3q-60 -102 -133.5 -149t-172.5 -47q-18 0 -29 1t-22 5zM298 207q9 20 17.5 46t18.5 64q10 37 18 75t14 71.5t9 62t3 47.5q0 69 -31 69q-18 0 -35.5 -26.5t-31.5 -68.5t-23 -94t-9 -104q0 -108 50 -142z" />
    <glyph glyph-name="J" unicode="J" horiz-adv-x="432" 
d="M312 230q22 66 35.5 118t21.5 102q5 32 7.5 61t2.5 49q0 35 -8.5 54.5t-22.5 19.5q-17 0 -33 -17.5t-29 -46t-21 -63.5t-8 -71q0 -38 7.5 -67t24.5 -53l-35 -30q-17 24 -23 48.5t-6 60.5q0 42 11.5 87.5t33.5 90.5q20 40 44 62t48 22q60 0 60 -139q0 -30 -4.5 -66
t-12 -74.5t-18.5 -76.5t-24 -72q14 2 23.5 2.5t18.5 0.5h7l-2 -14q-15 0 -25 -1t-28 -3q-31 -78 -70.5 -144t-82 -115t-85 -76.5t-79.5 -27.5q-35 0 -54 20.5t-19 56.5q0 42 31.5 91.5t85.5 93.5q48 38 102 64t123 43zM301 203q-57 -14 -111.5 -41t-93.5 -62
q-45 -41 -71 -88t-26 -88q0 -26 13 -43t34 -17q62 0 142 110q20 28 40 65t45 94q10 21 15 35t13 35z" />
    <glyph glyph-name="K" unicode="K" horiz-adv-x="701" 
d="M556 -8q-106 95 -170 237l343 408h52l-357 -391q13 -29 31.5 -60t40.5 -60.5t46 -55.5t48 -45zM353 316q12 39 22.5 80.5t20 81.5t17.5 76.5t13 66.5l2 12l53 26q-6 -38 -15 -81.5t-19.5 -88t-22.5 -87.5t-24 -79q-18 -53 -35.5 -94.5t-37 -74.5t-41 -58.5t-47.5 -46.5
q-45 -36 -99 -54t-122 -18q-20 0 -30.5 1t-21.5 5l16 36q26 -8 52.5 -12t50.5 -4q54 0 101.5 29t85.5 86q12 18 22 36.5t19.5 42t19 52.5t20.5 67z" />
    <glyph glyph-name="L" unicode="L" horiz-adv-x="580" 
d="M516 -10q-8 -2 -13.5 -2h-11.5q-24 0 -58 6q-13 2 -24.5 4.5t-24.5 6t-30 8.5t-41 13q-20 7 -35 11t-32 9q-30 -29 -70.5 -44.5t-82.5 -15.5q-48 0 -77 17t-29 46q0 30 32 47t89 17q32 0 67.5 -5.5t74.5 -17.5q13 24 22.5 52.5t20.5 78.5l35 163q15 71 27.5 110.5
t30.5 68.5q26 42 59 66.5t65 24.5q36 0 56.5 -24t20.5 -67q0 -12 -2.5 -28t-7 -34t-10.5 -36.5t-13 -34.5l-45 -7q20 39 33.5 83.5t13.5 74.5q0 29 -12.5 44.5t-35.5 15.5q-24 0 -45.5 -17t-38.5 -49q-5 -11 -9.5 -21t-8 -23.5t-8 -31t-9.5 -42.5l-44 -204q-7 -32 -14 -57.5
t-15 -46t-17.5 -37t-21.5 -30.5l13 -4q37 -13 66.5 -21.5t52.5 -14t41.5 -8t34.5 -2.5q14 0 25 1t27 4zM211 57q-48 14 -78 20t-55 6q-35 0 -54.5 -10t-19.5 -28q0 -20 25.5 -33.5t63.5 -13.5t71.5 14.5t58.5 41.5z" />
    <glyph glyph-name="M" unicode="M" horiz-adv-x="694" 
d="M77 7l21 83q4 14 8 33.5t12 51.5q11 51 19 88.5t14 69t11.5 62t11.5 66.5q8 47 11.5 76.5t3.5 49.5q0 27 -8.5 43t-23.5 16q-36 0 -66 -99q-9 -30 -15.5 -64.5t-11.5 -69.5l-37 24q6 47 18.5 88t29.5 71t37.5 47.5t41.5 17.5q32 0 49.5 -33.5t17.5 -90.5q0 -49 -9 -110
q-1 -8 -2 -14l-2.5 -15t-4 -23.5t-6.5 -39.5l-20 -106l3 9q17 47 43.5 105.5t58.5 119.5q83 163 143 163q20 0 31.5 -14t11.5 -37q0 -21 -9 -66l-56 -271l4 12t5 13.5t8 18t12 26.5q34 75 62 128t52.5 86.5t45.5 49.5t41 16q21 0 32.5 -14t11.5 -37q0 -11 -1.5 -22.5
t-6.5 -34.5l-101 -480h-47l103 493l4 17q3 15 3 25q0 22 -19 22q-14 0 -30.5 -17t-42.5 -56q-22 -32 -42.5 -71.5t-45.5 -94.5q-71 -158 -106 -318h-40l113 531q3 15 4 23t1 16q0 23 -18 23q-23 0 -56 -44.5t-79 -138.5q-35 -71 -61 -134.5t-51 -138.5q-15 -44 -24.5 -76
t-16.5 -61h-41z" />
    <glyph glyph-name="N" unicode="N" horiz-adv-x="513" 
d="M75 10q7 26 16 60.5t18.5 75t19.5 85t19 89.5q13 66 27 141q8 46 12 74.5t4 47.5q0 29 -8.5 45.5t-23.5 16.5q-40 0 -66 -98q-10 -33 -17.5 -70.5t-10.5 -64.5l-38 26q7 48 20.5 88.5t31 70.5t37.5 46.5t40 16.5q32 0 49.5 -33.5t17.5 -93.5q0 -26 -2 -49t-8 -58
q-4 -24 -7.5 -46.5t-5.5 -33.5l-25 -121l4 11q41 100 80.5 177.5t73.5 124.5q60 83 112 83q24 0 39.5 -17t15.5 -44q0 -9 -2.5 -27t-5.5 -33l-110 -500h-47l112 508q4 18 5.5 27t1.5 18q0 36 -31 36q-42 0 -103 -97q-24 -39 -49 -87.5t-48.5 -101t-44 -106.5t-36.5 -105
l-26 -83l-3 -9h-41z" />
    <glyph glyph-name="O" unicode="O" horiz-adv-x="598" 
d="M578 419q0 -66 -22 -134.5t-64 -130.5q-53 -78 -123 -120t-148 -42q-47 0 -85.5 16t-65.5 46t-42 72t-15 94q0 84 30 162t79.5 138t113.5 96.5t133 36.5q47 0 85.5 -17t66 -47.5t42.5 -74t15 -95.5zM521 439q0 92 -43 144t-120 52q-63 0 -119 -40t-98 -114
q-16 -29 -29.5 -62.5t-23 -69t-14.5 -71.5t-5 -69q0 -92 44 -146t118 -54q34 0 68 13t65 37t57 58.5t46 76.5q12 26 22 57t17 63.5t11 64.5t4 60z" />
    <glyph glyph-name="P" unicode="P" horiz-adv-x="476" 
d="M94 282q17 77 26 153.5t9 139.5v11t-1 16l54 24v-13q0 -17 -1.5 -44.5t-4.5 -58.5t-6 -61t-6 -50q23 54 54.5 101t65 82t67.5 55t63 20q38 0 61.5 -30.5t23.5 -81.5q0 -66 -29 -131t-75 -117.5t-103.5 -85t-115.5 -32.5h-15t-15 2l26 35q24 -7 49 -7q41 0 81.5 26.5
t72.5 76.5q15 22 28 51.5t22.5 61t15.5 62t6 55.5q0 42 -13.5 64.5t-39.5 22.5q-35 0 -80.5 -40t-90.5 -109q-32 -51 -53 -105.5t-38 -131.5l-52 -243h-47z" />
    <glyph glyph-name="Q" unicode="Q" horiz-adv-x="598" 
d="M499 -92q-27 2 -62.5 20.5t-93.5 59.5l-28 20h-3q-23 -8 -46.5 -12t-46.5 -4q-47 0 -85 16.5t-65 46.5t-41.5 72t-14.5 93q0 84 30 162t79.5 138t113.5 96.5t133 36.5q47 0 85.5 -17t66 -47.5t42.5 -74t15 -96.5q0 -59 -17.5 -118.5t-48 -112.5t-72 -95.5t-89.5 -67.5
l14 -9q30 -19 53 -32t42.5 -21.5t37.5 -12t37 -4.5zM298 21q-48 35 -86 35q-17 0 -30 -8.5t-20 -23.5q30 -15 71 -15q33 0 65 12zM152 29q28 50 74 50q20 0 45 -9.5t60 -32.5q89 54 136 157q12 25 22 56.5t17 64t11 64.5t4 59q0 93 -43 145t-120 52q-63 0 -119 -40t-98 -114
q-16 -29 -29.5 -62.5t-23 -69t-14.5 -71.5t-5 -69q0 -63 22 -110t61 -70z" />
    <glyph glyph-name="R" unicode="R" horiz-adv-x="465" 
d="M91 281q16 77 24.5 149.5t8.5 131.5v28l-1 11l54 25v-9q0 -26 -3 -72q-1 -20 -2 -35.5t-2.5 -30.5t-3.5 -32t-5 -41l-2 -13q11 29 29 62.5t39 63.5q45 66 92 101.5t89 35.5q38 0 61 -27.5t23 -75.5q0 -51 -23 -103.5t-61.5 -98t-89 -80.5t-106.5 -51q32 -57 76.5 -108.5
t95.5 -91.5l-36 -34q-30 23 -60.5 54t-56.5 65t-46 67t-29 59h9q46 0 96.5 26.5t91.5 72.5q19 21 35 48t28 56t18.5 58t6.5 55q0 36 -15 56.5t-42 20.5q-38 0 -82 -38t-85 -107q-15 -26 -27.5 -52t-23 -54.5t-19.5 -61.5t-17 -73l-51 -238h-46z" />
    <glyph glyph-name="S" unicode="S" horiz-adv-x="474" 
d="M14 62q42 -24 80.5 -35t79.5 -11q39 0 73 11t59 30t39.5 45t14.5 55q0 19 -5 35t-17 31.5t-31.5 32t-49.5 36.5q-28 18 -44.5 29.5t-27 18.5t-17 12t-13.5 11q-19 17 -27.5 34t-8.5 40q0 77 100 147q45 32 98.5 51t100.5 19q45 0 70 -17t25 -47q0 -37 -30.5 -78
t-84.5 -77l-38 22q53 35 82.5 72.5t29.5 66.5q0 20 -16 31t-46 11q-37 0 -80.5 -14.5t-83.5 -40.5q-86 -54 -86 -120q0 -14 5.5 -26t19 -26t37 -31.5t59.5 -41.5q20 -13 33.5 -22.5t23.5 -17.5t17 -15t13 -16q27 -35 27 -77q0 -34 -17 -68.5t-49 -63.5q-75 -70 -206 -70
q-86 0 -136 25z" />
    <glyph glyph-name="T" unicode="T" horiz-adv-x="525" 
d="M-15 25q23 -10 49 -14.5t51 -4.5q126 0 203 139q13 24 25.5 54.5t29.5 83.5q12 34 22.5 71.5t20 75t17.5 73.5t13 68l52 23h-3l-10 2q-51 6 -107.5 10t-105.5 4q-53 0 -89 -7.5t-59 -21.5q-16 -11 -25.5 -25.5t-9.5 -29.5q0 -68 173 -79l-34 -34q-70 4 -112 33.5
t-42 74.5q0 29 20 54t56 42q31 15 79.5 23t108.5 8q26 0 63 -2.5t76.5 -6t78.5 -8.5t70 -10l9 -1l-22 -44l-9 1q-20 4 -45.5 8t-54.5 8l-3 1l-2 -7l-1 -7q-38 -171 -79 -286.5t-93.5 -185.5t-121 -100t-159.5 -30q-14 0 -24.5 0.5t-23.5 2.5z" />
    <glyph glyph-name="U" unicode="U" horiz-adv-x="509" 
d="M340 12q9 63 20.5 122t27.5 122l45 178l-4.5 -10.5t-2.5 -5.5l-18 -45q-10 -23 -22 -50.5t-25.5 -56t-27 -55.5t-25.5 -49q-94 -172 -171 -172q-25 0 -40 16.5t-15 45.5q0 10 2.5 24t8.5 40l79 343l12 56q5 23 7 40.5t2 31.5q0 51 -28 51q-17 0 -31.5 -17t-25.5 -49
q-27 -76 -40 -164l-38 26q8 48 21.5 88t30.5 68.5t37.5 44.5t41.5 16q30 0 46.5 -29.5t16.5 -82.5q0 -15 -1 -30.5t-4 -33.5t-7.5 -41t-11.5 -53l-60 -262l-5 -22q-6 -27 -6 -40q0 -16 8 -26t22 -10q35 0 80 60t107 188q28 58 51.5 115t46.5 127q14 40 21.5 64.5t13.5 50.5
l42 17l-96 -425q-6 -24 -11.5 -52t-11 -56.5t-10 -57t-7.5 -52.5h-46z" />
    <glyph glyph-name="V" unicode="V" horiz-adv-x="531" 
d="M188 531q2 22 2.5 34t0.5 20q0 55 -30 55q-19 0 -32.5 -18t-28.5 -62q-12 -33 -21.5 -73.5t-15.5 -78.5l-36 26q7 42 20 81.5t30 71.5q38 68 82 68q34 0 54 -30.5t20 -82.5q0 -11 -0.5 -24.5t-1.5 -27.5l-23 -402q0 -8 -0.5 -16.5t-0.5 -10.5q0 -33 22 -33q35 0 93 75
q44 56 79.5 119.5t61.5 129.5t41.5 132t18.5 129l55 24q-38 -235 -188 -466q-28 -44 -57 -82t-51 -59t-40 -30.5t-36 -9.5q-24 0 -34.5 14t-10.5 47v15t1 16z" />
    <glyph glyph-name="W" unicode="W" horiz-adv-x="758" 
d="M185 533q1 14 1.5 27t0.5 17q0 62 -31 62q-20 0 -33.5 -18.5t-26.5 -62.5q-10 -32 -18.5 -72.5t-13.5 -78.5l-37 24q17 109 50 166t78 57q75 0 75 -132q0 -9 -0.5 -17.5t-1.5 -19.5l-15 -396q0 -5 -0.5 -8.5t-0.5 -8.5q0 -23 4 -32.5t14 -9.5q12 0 28.5 17t43.5 58
q33 51 65.5 116.5t55.5 129.5q10 28 18 54.5t14.5 55.5t12 61t10.5 71l2 12l48 20l-2 -11l-15 -154q-5 -50 -7.5 -105.5t-4.5 -125.5q-2 -41 -2 -75.5v-57.5q0 -40 3.5 -53.5t14.5 -13.5q12 0 27 14t39 49q37 53 67 113t51 123t32 126.5t11 123.5q0 6 -0.5 16.5t-0.5 24.5
l44 19q-1 -183 -107 -406q-32 -67 -66 -122.5t-63 -85.5q-17 -19 -30.5 -27t-26.5 -8q-23 0 -31.5 19.5t-8.5 72.5v27.5t1 34.5v33.5t0.5 32t1.5 35t2 41.5q2 42 4 78.5t4 60.5l1 16q-19 -74 -45.5 -140t-65.5 -137q-49 -88 -97 -143q-26 -32 -52 -32q-14 0 -23.5 8
t-12.5 22q-3 12 -3 42q0 10 1 15z" />
    <glyph glyph-name="X" unicode="X" horiz-adv-x="523" 
d="M-21 52h8q26 0 58 12.5t60 33.5q30 23 60.5 58.5t60.5 83.5l43 69l1 2v3q-26 119 -54 188.5t-61 99.5l37 40q62 -69 100 -239l5 -20l4 -20l10 18l11 17q19 32 32.5 54t23.5 38.5t19 29.5t19 27q38 51 78.5 78.5t78.5 28.5l-12 -56q-5 0 -8 0.5t-5 0.5q-23 0 -47 -12
t-49 -35q-11 -11 -23 -25.5t-25.5 -33.5t-29.5 -43.5t-35 -55.5l-17 -26l-16 -27l4 -17l4 -16q24 -105 57.5 -175t79.5 -114l-37 -32q-22 21 -39.5 46.5t-35.5 61.5q-10 20 -18.5 40.5t-16 43t-14.5 49t-14 59.5l-1 3l-19 -32q-24 -41 -44.5 -72t-39 -55t-36.5 -42.5
t-39 -35.5q-69 -57 -130 -63z" />
    <glyph glyph-name="Y" unicode="Y" horiz-adv-x="508" 
d="M37 29q24 -9 47.5 -13t49.5 -4q63 0 110 28t85 90q20 30 36 65t31 80q4 13 8.5 25.5t9 28.5t10.5 37.5t14 51.5l4 14l-7 -13q-12 -24 -22 -42.5t-21.5 -35.5t-24.5 -33.5t-29 -35.5q-31 -38 -55 -54.5t-47 -16.5q-37 0 -51 36q-6 18 -6 59v21l9 251v16q0 58 -31 58
q-29 0 -53 -58t-38 -164l-2 -12l-37 24q3 21 8 43t11.5 44t14.5 41t16 34q37 63 80 63q36 0 55.5 -35t19.5 -103q0 -6 -0.5 -13.5t-0.5 -15.5l-6 -164q-1 -8 -1 -15.5v-12.5q0 -61 37 -61q18 0 37 14.5t47 48.5q52 64 87 145.5t48 169.5l55 25l-3 -15q-14 -76 -32.5 -148
t-39.5 -135t-43.5 -114t-44.5 -84q-54 -81 -126 -119.5t-172 -38.5q-17 0 -29.5 1t-24.5 4z" />
    <glyph glyph-name="Z" unicode="Z" horiz-adv-x="571" 
d="M195 66q-50 -38 -85 -54.5t-69 -16.5q-26 0 -43.5 14.5t-17.5 36.5q0 33 33.5 52.5t90.5 19.5q49 0 107 -14l7 6q56 50 106 107t93 117t77 123t58 125l-9 2q-83 19 -157.5 30t-124.5 11q-81 0 -117 -24q-17 -11 -26.5 -26.5t-9.5 -30.5q0 -33 40.5 -53t129.5 -31l-37 -35
q-70 11 -108.5 39.5t-38.5 72.5q0 48 47 81q29 21 67.5 30.5t93.5 9.5q68 0 142 -10.5t141 -29.5l6 -2q-9 -26 -23 -56t-30 -62t-34 -63.5t-36 -59.5q-49 -75 -105 -141t-123 -128l-8 -8l12 -3q13 -5 25.5 -8.5t24.5 -7.5q27 -9 43 -14.5t26.5 -8.5l17.5 -5t16 -4
q25 -5 47 -8t42 -3q9 0 16.5 0.5t20.5 1.5l-26 -47q-8 -1 -15 -1.5t-10 -0.5q-57 0 -135 27zM171 72q-56 17 -99 17q-31 0 -50 -12.5t-19 -32.5q0 -14 11.5 -22.5t28.5 -8.5q25 0 51.5 11.5t67.5 40.5z" />
    <glyph glyph-name="bracketleft" unicode="[" horiz-adv-x="333" 
d="M228 705h86l-3 -15h-15q-24 0 -31.5 -5.5t-11.5 -27.5l-4 -17l-134 -653l-3 -17q-2 -10 -2 -15q0 -10 6.5 -13.5t23.5 -3.5h17l-3 -15h-87z" />
    <glyph glyph-name="backslash" unicode="\" horiz-adv-x="378" 
d="M117 704l13 2l152 -780l-14 -3z" />
    <glyph glyph-name="bracketright" unicode="]" horiz-adv-x="333" 
d="M17 -62h15q24 0 31.5 5.5t11.5 27.5l4 18l134 652l3 17q2 10 2 15q0 11 -6 14t-24 3h-17l3 15h87l-161 -782h-86z" />
    <glyph glyph-name="asciicircum" unicode="^" horiz-adv-x="400" 
d="M201 690h38l161 -367h-43l-136 317h-2l-136 -317h-43z" />
    <glyph glyph-name="underscore" unicode="_" 
d="M0 -50h500v-50h-500v50z" />
    <glyph glyph-name="grave" unicode="`" 
d="M205 398l29 9l29 -82l-10 -3z" />
    <glyph glyph-name="a" unicode="a" horiz-adv-x="325" 
d="M279 49q-27 -31 -40 -42.5t-24 -11.5q-15 0 -26.5 16.5t-11.5 38.5q0 4 0.5 9.5t2 13.5t3.5 19.5t6 28.5l3 18q-9 -23 -20 -41t-28 -40q-51 -64 -97 -64q-28 0 -44.5 19.5t-16.5 54.5q0 36 15.5 73t40 68t54 50.5t57.5 19.5q39 0 58 -28l5 19l46 19l-46 -179
q-3 -12 -5 -25.5t-2 -20.5q0 -16 6 -26t16 -10q8 0 18.5 7.5t28.5 27.5l7 -8zM206 226q-6 18 -20 28.5t-32 10.5q-22 0 -45.5 -19.5t-43.5 -54.5q-16 -29 -26.5 -62t-10.5 -55q0 -53 37 -53q22 0 47 21t48 59q7 12 12.5 22.5t10.5 23t9.5 27.5t9.5 35z" />
    <glyph glyph-name="b" unicode="b" horiz-adv-x="311" 
d="M116 663l52 25l-141 -602q87 196 172 196q26 0 42.5 -20.5t16.5 -52.5q0 -37 -17 -81t-45 -78q-46 -58 -105 -58q-20 0 -35.5 6t-36.5 20l-34 -20zM27 50q11 -23 27 -34.5t36 -11.5q29 0 54.5 25.5t44.5 73.5q11 27 18.5 59.5t7.5 50.5q0 46 -32 46q-17 0 -36.5 -15
t-40 -43t-41 -66.5t-38.5 -84.5z" />
    <glyph glyph-name="c" unicode="c" horiz-adv-x="239" 
d="M192 73q-30 -43 -58.5 -61.5t-61.5 -18.5q-38 0 -61.5 26t-23.5 68q0 34 13.5 69t35.5 63t49 45.5t53 17.5q23 0 36.5 -13t13.5 -33t-14.5 -37t-31.5 -17q-7 0 -13 6q14 7 23 21t9 32q0 13 -7.5 21t-18.5 8q-18 0 -37 -15.5t-34 -40t-24.5 -55t-9.5 -60.5
q0 -36 17.5 -58.5t44.5 -22.5q24 0 45.5 14t47.5 47z" />
    <glyph glyph-name="d" unicode="d" horiz-adv-x="318" 
d="M270 63l7 -8l-39 -41q-11 -11 -16.5 -15t-13.5 -4q-16 0 -26.5 16t-10.5 39q0 8 0.5 16.5t5.5 29.5l6 28q-14 -32 -40 -66q-49 -64 -96 -64q-28 0 -44 20t-16 55q0 37 15 75t39.5 68.5t54.5 49.5t60 19q29 0 53 -17l80 399l53 25l-130 -563q-10 -46 -10 -62
q0 -17 5.5 -26.5t15.5 -9.5q13 0 30 19zM205 240q-5 12 -18.5 20.5t-29.5 8.5q-23 0 -47 -20.5t-45 -58.5q-17 -29 -26.5 -61.5t-9.5 -58.5q0 -24 10 -38t28 -14q20 0 44 21.5t47 60.5q10 15 15 27t11 29q5 15 9.5 31.5t6.5 27.5z" />
    <glyph glyph-name="e" unicode="e" horiz-adv-x="242" 
d="M195 69q-31 -41 -59.5 -59t-61.5 -18q-40 0 -63.5 26.5t-23.5 70.5q0 33 13.5 67.5t35.5 62.5t48.5 45.5t52.5 17.5q20 0 33 -11.5t13 -30.5q0 -38 -41 -75.5t-112 -63.5v-9q0 -34 18.5 -55t47.5 -21q23 0 44 14t47 46zM30 113q29 13 47.5 25t33.5 27q20 20 31.5 42.5
t11.5 39.5q0 23 -21 23q-16 0 -33 -13.5t-31.5 -36t-25 -50.5t-13.5 -57z" />
    <glyph glyph-name="f" unicode="f" horiz-adv-x="160" 
d="M-143 -150q12 -9 22 -13t23 -4q35 0 54 39q6 12 14 39.5t14 53.5l63 295h-47l3 17h48l46 215q11 53 23.5 84.5t29.5 54.5q43 57 105 57q20 0 39 -7l-18 -45q-19 28 -50 28q-23 0 -37 -17.5t-25 -59.5l-75 -310h79l-3 -17h-80l-67 -276q-7 -28 -13 -48.5t-12.5 -35.5
t-14.5 -27t-19 -23q-40 -43 -85 -43q-14 0 -22 1.5t-18 6.5z" />
    <glyph glyph-name="g" unicode="g" horiz-adv-x="303" 
d="M-19 -141q17 -16 32 -23t32 -7q20 0 39.5 12t30.5 31q8 14 13.5 31t13.5 51l37 161q-32 -60 -66 -91t-67 -31q-27 0 -43.5 20.5t-16.5 53.5q0 36 15.5 73.5t39.5 68t53.5 50.5t58.5 20q34 0 58 -26l4 17l45 19l-75 -298q-6 -24 -10.5 -41t-9 -29t-9.5 -21.5t-11 -19.5
q-23 -35 -56.5 -54t-71.5 -19q-34 0 -60 20zM205 228q-20 37 -50 37q-32 0 -65 -37q-13 -15 -24 -34.5t-19.5 -41t-13.5 -42.5t-5 -39q0 -24 10.5 -38.5t29.5 -14.5q20 0 43.5 21.5t46.5 61.5q14 23 24 48t18 57z" />
    <glyph glyph-name="h" unicode="h" horiz-adv-x="312" 
d="M115 663l51 25l-135 -595l13 30q14 31 32.5 60.5t39.5 52.5q41 45 76 45q19 0 30 -12t11 -32q0 -10 -5 -32l-25 -99q-7 -31 -7 -45q0 -15 5.5 -25t13.5 -10q15 0 49 37l7 -8q-16 -19 -26.5 -30.5t-18.5 -18t-13.5 -9t-11.5 -2.5q-15 0 -25.5 15.5t-10.5 37.5q0 8 1.5 19
t4.5 28l19 103q2 11 3 20.5t1 14.5q0 9 -5.5 15t-14.5 6q-19 0 -42.5 -22.5t-46 -58t-40.5 -79.5t-27 -88l-33 -11z" />
    <glyph glyph-name="i" unicode="i" horiz-adv-x="144" 
d="M99 477q11 0 19.5 -8.5t8.5 -19.5q0 -12 -8.5 -20.5t-19.5 -8.5q-12 0 -20.5 8.5t-8.5 20.5q0 11 8.5 19.5t20.5 8.5zM102 50q-14 -17 -24 -27.5t-17.5 -16.5t-13 -8.5t-11.5 -2.5q-15 0 -25.5 15.5t-10.5 37.5q0 8 1 18.5t5 28.5l31 171l48 20l-44 -161q-4 -16 -7 -34.5
t-3 -28.5q0 -16 5.5 -26t13.5 -10q15 0 49 37l7 -8z" />
    <glyph glyph-name="j" unicode="j" horiz-adv-x="133" 
d="M-142 -152q21 -15 42 -15q19 0 35 11.5t25 31.5q4 9 7 21t7 35l63 334l47 20l-77 -328q-5 -22 -9 -37t-8.5 -25.5t-9 -19t-11.5 -17.5q-18 -23 -45 -37t-56 -14q-11 0 -18 1.5t-15 4.5zM98 477q12 0 20.5 -8.5t8.5 -19.5q0 -12 -8.5 -20.5t-20.5 -8.5t-20 8.5t-8 20.5
q0 11 8 19.5t20 8.5z" />
    <glyph glyph-name="k" unicode="k" horiz-adv-x="290" 
d="M116 663l53 25l-133 -578q15 37 43.5 75t57.5 61q24 20 47.5 29t54.5 11l-8 -40q-8 2 -12.5 2.5t-9.5 0.5q-30 0 -56 -13.5t-52 -44.5q8 -20 20 -48t22 -48q20 -39 32.5 -54t23.5 -15t20.5 6.5t26.5 23.5l4 4l6 -7q-26 -32 -43 -45.5t-28 -13.5q-15 0 -28.5 13t-31.5 45
q-14 25 -26.5 52.5t-23.5 54.5q-46 -77 -58 -153l-32 -11z" />
    <glyph glyph-name="l" unicode="l" horiz-adv-x="144" 
d="M102 50q-14 -17 -24 -27.5t-17.5 -16.5t-13 -8.5t-11.5 -2.5q-15 0 -25.5 15.5t-10.5 37.5q0 7 1.5 20.5t4.5 26.5l112 568l52 25l-129 -563l-4 -19q-6 -29 -6 -45q0 -15 5.5 -25t13.5 -10q15 0 49 37l7 -8z" />
    <glyph glyph-name="m" unicode="m" horiz-adv-x="473" 
d="M42 266l47 20l-42 -177q16 38 35.5 69.5t39.5 54.5t39 35.5t36 12.5q37 0 37 -41q0 -9 -1.5 -19.5t-6.5 -30.5l-16 -73q46 90 79.5 128t65.5 38q19 0 29 -11t10 -31q0 -16 -10 -56l-15 -60l-4 -19q-5 -17 -6.5 -27t-1.5 -18q0 -15 5.5 -25t14.5 -10q15 0 48 37l8 -8
l-5 -5q-14 -17 -24 -27.5t-17 -16.5t-12.5 -8.5t-11.5 -2.5q-15 0 -26 15.5t-11 37.5q0 8 1.5 18t4.5 29l18 101l4 17q1 8 1.5 13.5t0.5 10.5q0 19 -19 19q-17 0 -37.5 -20t-46.5 -65q-25 -41 -40.5 -78t-29.5 -87l-32 -11l39 199q1 5 3 17q4 16 4 23q0 22 -18 22
q-17 0 -39.5 -22.5t-47.5 -62.5q-12 -20 -22 -38t-18 -37.5t-15.5 -41t-14.5 -48.5l-30 -11z" />
    <glyph glyph-name="n" unicode="n" horiz-adv-x="324" 
d="M43 266l47 20l-42 -179q40 85 80 129.5t77 44.5q19 0 30 -12t11 -32q0 -10 -5 -32l-6 -20l-14 -60l-5 -19q-7 -31 -7 -45q0 -15 5.5 -25t13.5 -10q15 0 49 37l7 -8l-4 -5q-29 -34 -42 -44.5t-24 -10.5q-15 0 -25.5 15.5t-10.5 37.5q0 8 1 19t5 28l19 103q2 11 3 20.5
t1 14.5q0 9 -5.5 15t-14.5 6q-34 0 -83 -73q-12 -18 -22 -35t-19 -35.5t-17 -41t-17 -50.5l-5 -13l-32 -11z" />
    <glyph glyph-name="o" unicode="o" horiz-adv-x="293" 
d="M-13 94q0 34 14 67.5t37 59.5t51.5 42.5t58.5 16.5q41 0 66.5 -27t25.5 -71q0 -36 -14 -70t-36.5 -61t-51.5 -43.5t-59 -16.5q-42 0 -67 28t-25 75zM196 201q0 30 -14.5 49t-37.5 19q-20 0 -38.5 -13.5t-34.5 -38.5q-18 -29 -29.5 -67.5t-11.5 -70.5q0 -36 14.5 -56
t40.5 -20q43 0 75 60q16 29 26 67.5t10 70.5z" />
    <glyph glyph-name="p" unicode="p" horiz-adv-x="315" 
d="M45 266l47 20l-32 -140q36 72 68 104.5t70 32.5q30 0 47 -21.5t17 -59.5t-15.5 -78t-43.5 -73q-50 -61 -111 -61q-36 0 -62 20l-50 -204h-27zM37 43q20 -41 58 -41q53 0 94 88q32 72 32 118q0 26 -10 40.5t-27 14.5q-14 0 -30.5 -10.5t-31.5 -28.5q-30 -38 -52 -85
q-4 -8 -7 -15.5t-6 -16.5l-7 -21t-9 -30z" />
    <glyph glyph-name="q" unicode="q" horiz-adv-x="301" 
d="M182 116q-10 -20 -22 -38.5t-28 -36.5q-42 -49 -81 -49q-29 0 -46.5 21t-17.5 56q0 32 13.5 68t38.5 68q54 72 115 72q35 0 58 -24l4 17l45 19l-121 -483h-27zM207 228q-15 35 -50 35q-20 0 -42 -15.5t-39 -41.5q-21 -35 -33.5 -72.5t-12.5 -67.5q0 -23 10 -36.5
t29 -13.5q18 0 38 16.5t39 44t34 62.5t23 71z" />
    <glyph glyph-name="r" unicode="r" horiz-adv-x="216" 
d="M170 53q-8 -8 -18 -17t-25 -20q-27 -21 -48 -21q-41 0 -41 48q0 19 6.5 40.5t21.5 51.5q12 24 29.5 53.5t37.5 58.5l5 7q-17 -15 -31 -21t-34 -6q-5 0 -9 0.5t-10 2.5q-7 -22 -23 -49t-36 -50l-8 8q20 23 34.5 48.5t21.5 46.5q-39 21 -39 63q0 19 9 31.5t23 12.5
q15 0 24 -13.5t9 -35.5q0 -8 -1 -15t-4 -18q12 -4 24 -4q29 0 50 17h23l-3 -6q-17 -31 -31.5 -63.5t-25.5 -62t-17.5 -54.5t-6.5 -40q0 -11 5.5 -19t14.5 -8q19 0 65 43zM54 263q1 7 1 11v9q0 17 -5.5 27t-13.5 10q-12 0 -12 -16q0 -24 30 -41z" />
    <glyph glyph-name="s" unicode="s" horiz-adv-x="213" 
d="M-13 63q23 -50 68 -50q25 0 42.5 15.5t17.5 36.5q0 15 -9 26.5t-39 35.5t-39.5 37t-9.5 31q0 17 8 32.5t21.5 27.5t31 19t36.5 7q22 0 37 -11t15 -28q0 -22 -19 -30q-4 23 -18 35.5t-37 12.5q-20 0 -35 -12.5t-15 -29.5q0 -21 26 -41l28 -23q23 -17 32.5 -33t9.5 -33
q0 -20 -8.5 -37.5t-23 -30.5t-34 -21t-40.5 -8q-43 0 -73 40z" />
    <glyph glyph-name="t" unicode="t" horiz-adv-x="179" 
d="M131 66l7 -7q-28 -35 -47.5 -49.5t-38.5 -14.5q-23 0 -37 15t-14 41q0 21 7 53l32 156h-47l4 17h47l27 132l47 19l-34 -151h79l-4 -17h-79l-37 -162q-6 -27 -6 -38q0 -17 8.5 -28t22.5 -11q13 0 23.5 7.5t33.5 31.5z" />
    <glyph glyph-name="u" unicode="u" horiz-adv-x="301" 
d="M257 50q-29 -34 -42 -44.5t-24 -10.5q-15 0 -25.5 15.5t-10.5 37.5v6t1 8q-51 -67 -101 -67q-26 0 -40.5 14t-14.5 38q0 10 1.5 21t3.5 25l34 173l47 20l-47 -189q-4 -15 -5.5 -24.5t-1.5 -18.5q0 -17 10.5 -27.5t28.5 -10.5q42 0 86 68l2 3q1 2 1 3.5t1 4.5l31 171
l47 20l-43 -161q-5 -16 -7.5 -34.5t-2.5 -28.5q0 -16 5 -26t14 -10q15 0 49 37l7 -8z" />
    <glyph glyph-name="v" unicode="v" horiz-adv-x="255" 
d="M0 266l44 20v-13q1 -38 2.5 -73t5.5 -77q3 -30 5.5 -48.5t5 -28.5t6 -13.5t8.5 -3.5q18 0 64 69q22 32 32 58.5t10 53.5q0 18 -5 30t-17 24l37 34q17 -23 17 -55q0 -35 -18 -75t-59 -96q-14 -20 -24.5 -32t-25.5 -26q-12 -11 -19 -15.5t-15 -4.5q-12 0 -17.5 9t-8.5 35z
" />
    <glyph glyph-name="w" unicode="w" horiz-adv-x="390" 
d="M0 267l44 19v-7v-5q0 -33 2 -66t7 -84q3 -31 5.5 -49.5t4.5 -28t5 -12.5t7 -3q6 0 15.5 9.5t20.5 25.5t23.5 37.5t23.5 45.5l-14 118l44 20v-12q1 -36 2 -59t2 -38.5t1.5 -27.5t2.5 -26q2 -23 5 -45t5 -30q3 -16 12 -16q18 0 61 70q21 34 30.5 60t9.5 49q0 36 -23 52
l37 34q17 -20 17 -51q0 -35 -18 -76.5t-58 -98.5q-11 -14 -20.5 -27t-21.5 -27q-21 -24 -36 -24q-11 0 -16 9.5t-8 34.5l-11 87q-10 -19 -23.5 -41.5t-25.5 -39.5q-37 -50 -59 -50q-11 0 -15.5 8.5t-8.5 33.5z" />
    <glyph glyph-name="x" unicode="x" horiz-adv-x="238" 
d="M-39 8q13 13 23.5 24.5t21.5 23t23 24.5t27 30l19 22l-64 139l35 14l57 -121l9 10l9 11q13 14 22.5 26t16.5 20l32 41l5 6h35l-5 -5q-14 -14 -21.5 -22.5t-13.5 -15.5t-12.5 -13.5t-16.5 -17.5q-20 -22 -32 -35t-18 -20l-2 -2l70 -147h-45l-53 115l-2 -2q-4 -5 -11 -13.5
t-16 -19.5l-30 -37q-16 -20 -22.5 -27.5t-14.5 -15.5h-33z" />
    <glyph glyph-name="y" unicode="y" horiz-adv-x="292" 
d="M-33 -141q27 -30 64 -30q38 0 60.5 29.5t37.5 97.5l23 101q-54 -63 -97 -63q-26 0 -40.5 15.5t-14.5 42.5q0 15 5 38l33 176l47 20l-47 -197q-3 -14 -4.5 -21.5t-1.5 -14.5q0 -17 10.5 -27t26.5 -10q18 0 39 15t49 48l42 187l46 20l-71 -287q-7 -27 -12.5 -47.5
t-11.5 -35.5t-12.5 -26t-14.5 -21q-47 -62 -117 -62q-38 0 -63 20z" />
    <glyph glyph-name="z" unicode="z" horiz-adv-x="231" 
d="M-33 12l6 8q9 10 22 25t26.5 31t25.5 30.5t19 23.5l45 56q17 21 25 32t17 24h-126l7 35h160l4 -11l-8 -9l-55 -67q-28 -33 -46.5 -56t-31.5 -39.5t-22.5 -29.5t-19.5 -27q14 -2 27 -2.5t34 -0.5q15 0 34 0.5t31 1.5h13.5t16.5 1l-5 -39h-193z" />
    <glyph glyph-name="braceleft" unicode="{" horiz-adv-x="444" 
d="M224 -98q-44 0 -72 18.5t-28 70.5q0 24 6 54.5t13.5 62t14 61.5t6.5 55q0 28 -10 45t-32 28q23 11 39 29t28 43.5t21 58.5t18 74q2 10 4.5 20.5t4.5 21.5q9 45 24 74t35 46t44.5 24t52.5 7l-4 -17q-22 -6 -40 -11.5t-32.5 -19t-25.5 -38t-19 -67.5q-3 -15 -5.5 -30
t-5.5 -31q-13 -69 -41 -117.5t-83 -66.5q32 -14 47.5 -31.5t15.5 -44.5t-6 -55t-13 -56.5t-13 -57t-6 -54.5q0 -32 13 -53t53 -26z" />
    <glyph glyph-name="bar" unicode="|" 
d="M239 740h42v-830h-42v830z" />
    <glyph glyph-name="braceright" unicode="}" horiz-adv-x="444" 
d="M214 694q44 0 72 -18.5t28 -70.5q0 -24 -6.5 -54.5t-14 -62t-13.5 -61.5t-6 -55q0 -28 10 -45t32 -28q-23 -11 -39 -29t-28 -43.5t-21 -59t-18 -73.5q-2 -10 -4.5 -20.5t-4.5 -21.5q-9 -45 -24 -74t-35 -46t-44.5 -24t-52.5 -7l4 17q22 6 40 11.5t32.5 19t25.5 38
t19 67.5q3 15 5.5 30t5.5 31q13 69 41 117.5t83 66.5q-32 14 -47.5 31.5t-15.5 44.5t6 55t13 56.5t13 57t6 54.5q0 32 -13 53t-53 26z" />
    <glyph glyph-name="asciitilde" unicode="~" horiz-adv-x="400" 
d="M52 241q1 26 8 43t18.5 27.5t26.5 15t31 4.5t33.5 -7.5t35.5 -16.5t35 -16.5t31 -7.5q20 0 28.5 12t11.5 35h37q-4 -47 -24.5 -68.5t-47.5 -21.5q-17 0 -36 7.5t-38.5 16.5t-37 16.5t-30.5 7.5q-23 0 -32 -12.5t-12 -34.5h-38z" />
    <glyph glyph-name="uni00A0" unicode="&#xa0;" horiz-adv-x="173" 
 />
    <glyph glyph-name="exclamdown" unicode="&#xa1;" horiz-adv-x="264" 
d="M154 493l13 6l-72 -475l-65 -30zM174 539q-17 0 -28.5 11.5t-11.5 28.5t11.5 28t28.5 11t28.5 -11t11.5 -28t-11.5 -28.5t-28.5 -11.5z" />
    <glyph glyph-name="cent" unicode="&#xa2;" horiz-adv-x="254" 
d="M65 60q-55 27 -55 97q0 28 9 56.5t24.5 54t35.5 45t43 28.5l11 53h12l-10 -49q9 3 17 3l10 46h12l-10 -47q20 -2 32 -14.5t12 -30.5q0 -17 -9 -26.5t-23 -9.5q12 16 12 33q0 29 -27 35l-52 -257h6q18 0 38 12t34 32l8 -6q-18 -29 -41.5 -44.5t-49.5 -17.5l-11 -53h-12
l11 54q-5 0 -8 0.5t-9 2.5l-11 -57h-12zM149 334q-8 0 -17 -4l-50 -243q5 -3 7.5 -4l7.5 -3zM119 323q-14 -9 -27 -26t-22.5 -39t-15 -46.5t-5.5 -48.5q0 -46 23 -68z" />
    <glyph glyph-name="sterling" unicode="&#xa3;" horiz-adv-x="296" 
d="M-47 5q49 34 73 69.5t27 80.5h-52l2 11h50v17h-47l3 11h43q-2 27 -3 38.5t-1 19.5q0 68 51 115q36 33 79 33q30 0 50 -16.5t20 -42.5q0 -17 -10 -29t-24 -12q-4 0 -8 1q5 8 7 14.5t2 15.5q0 25 -13.5 40.5t-36.5 15.5q-37 0 -58.5 -29t-21.5 -80q0 -16 3 -40
q2 -18 2.5 -27t0.5 -17h102l-2 -11h-100q0 -3 -0.5 -7.5t-1.5 -9.5h99l-3 -11h-99q-7 -29 -25 -57.5t-46 -56.5q15 2 24 3t19 1h10.5t10.5 -1l37 -3q8 -1 15.5 -1h15.5q53 0 73 49h10l-31 -89q-20 -4 -50 -4q-12 0 -27.5 1t-38.5 3q-26 3 -38 4t-24 1t-22 -0.5t-15 -2.5
l-27 -5z" />
    <glyph glyph-name="currency" unicode="&#xa4;" horiz-adv-x="360" 
d="M-42 140l84 71q-5 12 -6.5 26t-1.5 28q0 31 8 65q6 29 18.5 61t32.5 58l-55 71l37 31l45 -71q20 20 49.5 32t52.5 12t46 -12t35 -32l75 71l24 -31l-84 -71q6 -27 6 -58q0 -33 -6 -61q-7 -29 -19 -61t-32 -58l54 -71l-36 -31l-45 71q-21 -20 -50 -32t-52 -12t-46.5 12
t-34.5 32l-74 -71zM215 486q-43 0 -79.5 -40t-53.5 -117q-6 -30 -6 -56q0 -47 19 -73t51 -26q45 0 79.5 41.5t50.5 113.5q7 31 7 60q0 46 -18 71.5t-50 25.5z" />
    <glyph glyph-name="yen" unicode="&#xa5;" horiz-adv-x="319" 
d="M101 153h-81l3 13h80l3 16h-80l2 11h75l-36 113q-9 28 -17.5 45.5t-19.5 33.5l48 14l62 -202q21 27 42.5 55.5t39.5 54.5t32 48.5t22 37.5h36l-159 -200h73l-2 -11h-80l-3 -16h79l-2 -13h-80l-31 -153h-38z" />
    <glyph glyph-name="brokenbar" unicode="&#xa6;" 
d="M239 260h42v-350h-42v350zM239 740h42v-350h-42v350z" />
    <glyph glyph-name="section" unicode="&#xa7;" horiz-adv-x="454" 
d="M38 42q54 -47 118 -47q25 0 46.5 7.5t37.5 21t25.5 30.5t9.5 37q0 26 -15.5 46t-60.5 52q-26 18 -49 35t-40.5 34.5t-27.5 35t-10 37.5q0 22 10 43t27 38t39 31t46 23q-16 14 -27 30.5t-11 38.5q0 31 19.5 59t49 48t64.5 32t65 12q33 0 52 -14.5t19 -38.5
q0 -23 -15.5 -50t-43.5 -52l-34 14q27 20 42.5 42t15.5 40q0 17 -12.5 27.5t-37.5 10.5q-18 0 -44 -6.5t-49.5 -20t-40 -33.5t-16.5 -47q0 -10 3.5 -19.5t12.5 -20t26 -23t44 -30.5q34 -22 56.5 -40t35.5 -34.5t18 -33t5 -35.5q0 -26 -9.5 -47t-25.5 -38t-37 -29.5
t-44 -20.5q14 -15 22.5 -33.5t8.5 -42.5q0 -33 -18 -59.5t-46 -44.5t-61.5 -27.5t-64.5 -9.5q-33 0 -59.5 8.5t-45.5 23.5zM191 252q18 -13 29.5 -21.5t19 -14t12.5 -9.5t9 -7q42 6 70.5 33t28.5 62q0 26 -15.5 51t-60.5 57q-17 12 -29 20.5t-20.5 14t-14 9t-10.5 7.5
q-18 -5 -37 -14t-34 -21.5t-24.5 -28.5t-9.5 -36q0 -10 3.5 -20.5t13 -22.5t26 -26.5t43.5 -32.5z" />
    <glyph glyph-name="dieresis" unicode="&#xa8;" 
d="M226 378q9 0 15.5 -6.5t6.5 -16.5q0 -9 -6.5 -16t-15.5 -7q-10 0 -17 7t-7 16q0 10 7 16.5t17 6.5zM302 378q9 0 16 -6.5t7 -16.5q0 -9 -7 -16t-16 -7q-10 0 -16.5 7t-6.5 16q0 10 6.5 16.5t16.5 6.5z" />
    <glyph glyph-name="copyright" unicode="&#xa9;" horiz-adv-x="704" 
d="M15 321q0 69 26 129.5t71 105.5t105.5 71t129.5 26t129.5 -26t105.5 -71t71 -105.5t26 -129.5t-26 -129.5t-71 -105.5t-105.5 -71t-129.5 -26t-129.5 26t-105.5 71t-71 105.5t-26 129.5zM33 321q0 -65 24.5 -122t67.5 -100t100 -67.5t122 -24.5t122 24.5t100 67.5
t67.5 100t24.5 122t-24.5 122t-67.5 100t-100 67.5t-122 24.5t-122 -24.5t-100 -67.5t-67.5 -100t-24.5 -122zM470 211l11 -15q-78 -75 -161 -75q-58 0 -93 35.5t-35 95.5q0 40 18 86.5t55 94.5q19 24 41.5 44t46 34t46.5 21.5t43 7.5q26 0 41 -12.5t15 -35.5
q0 -18 -10.5 -37.5t-28.5 -37t-42 -31.5t-51 -21l-11 29q23 6 43.5 17.5t36 25t24.5 29.5t9 31q0 13 -8 21t-19 8q-36 0 -70.5 -27.5t-61.5 -67.5t-43.5 -85t-16.5 -81q0 -56 24 -88.5t65 -32.5q27 0 53.5 11t62.5 41z" />
    <glyph glyph-name="ordfeminine" unicode="&#xaa;" horiz-adv-x="222" 
d="M232 449q-17 -19 -26 -26.5t-17 -7.5q-11 0 -19.5 11t-8.5 25q0 5 5 33q-4 -7 -9 -14t-12 -15q-32 -41 -64 -41q-20 0 -31 13t-11 35t10.5 46t26.5 43t35.5 31.5t37.5 12.5q22 0 35 -13l2 6l37 15l-31 -116v1q-2 -8 -3 -16t-1 -12q0 -9 3 -15t8 -6q4 0 11 5t19 18l7 -8z
M179 560q-5 8 -13 15t-16 7q-13 0 -27.5 -12t-26.5 -33q-11 -17 -17.5 -37.5t-6.5 -33.5q0 -31 21 -31q13 0 28 13t29 36q10 14 15 27.5t12 39.5zM25 360h159l-4 -22h-160z" />
    <glyph glyph-name="guillemotleft" unicode="&#xab;" horiz-adv-x="263" 
d="M63 49q-7 27 -21 53.5t-32 46.5q26 22 51.5 47.5t45.5 51.5h9l-61 -99l16 -100h-8zM186 248l-60 -99l16 -100h-9q-7 27 -20.5 53.5t-32.5 46.5q26 22 51.5 47.5t45.5 51.5h9z" />
    <glyph glyph-name="logicalnot" unicode="&#xac;" horiz-adv-x="400" 
d="M330 346h-300v38h340v-156h-40v118z" />
    <glyph glyph-name="uni00AD" unicode="&#xad;" horiz-adv-x="237" 
d="M28 160h119l-4 -22h-120z" />
    <glyph glyph-name="registered" unicode="&#xae;" horiz-adv-x="390" 
d="M15 492q0 36 13.5 68t37.5 55.5t56 37.5t68 14t68 -14t55.5 -37.5t37.5 -55.5t14 -68t-14 -68t-37.5 -55.5t-55.5 -37.5t-68 -14t-68 14t-56 37.5t-37.5 55.5t-13.5 68zM24 492q0 -34 13 -64.5t35.5 -53t53 -35.5t64.5 -13t64 13t52.5 35.5t35.5 53t13 64.5t-13 64.5
t-35.5 53t-52.5 35.5t-64 13t-64.5 -13t-53 -35.5t-35.5 -53t-13 -64.5zM128 484q11 52 11 92l-1 13l29 13v-8q0 -12 -1 -28t-2 -28q6 9 13.5 21t17.5 23t21 18.5t23 7.5q16 0 25.5 -9t9.5 -26q0 -16 -7 -33t-19 -32t-28 -26.5t-35 -17.5q11 -18 27 -34t32 -29l-19 -18
q-11 9 -22.5 20t-21.5 23t-17 23t-10 20h9q17 0 32 9.5t26 24.5t17.5 33t6.5 35q0 24 -13 24q-10 0 -24 -13.5t-28 -33.5q-9 -16 -16 -35.5t-13 -42.5l-16 -79h-27z" />
    <glyph glyph-name="macron" unicode="&#xaf;" 
d="M205 360h119l-4 -22h-120z" />
    <glyph glyph-name="degree" unicode="&#xb0;" horiz-adv-x="420" 
d="M220 690q30 0 56.5 -11t46.5 -30.5t31.5 -45.5t11.5 -56t-11.5 -56t-31.5 -45.5t-46.5 -30.5t-56.5 -11t-56.5 11t-46.5 30.5t-31.5 45.5t-11.5 56t11.5 56t31.5 45.5t46.5 30.5t56.5 11zM220 652q-23 0 -42 -8.5t-32.5 -22.5t-21.5 -33t-8 -41t8 -41t21.5 -33.5
t32.5 -22.5t42 -8q22 0 41.5 8t33 22.5t21.5 33.5t8 41t-8 41t-21.5 33t-33 22.5t-41.5 8.5z" />
    <glyph glyph-name="plusminus" unicode="&#xb1;" horiz-adv-x="400" 
d="M180 321h-150v38h150v198h40v-198h150v-38h-150v-206h-40v206zM30 38h340v-38h-340v38z" />
    <glyph glyph-name="uni00B2" unicode="&#xb2;" horiz-adv-x="222" 
d="M-15 155q18 12 46 33.5t49 39.5q38 32 54 56.5t16 50.5q0 23 -12.5 37.5t-32.5 14.5t-35 -13.5t-15 -30.5q0 -19 20 -24q-8 -12 -20 -12t-19.5 7.5t-7.5 18.5q0 13 7 25t19 21.5t27.5 15t32.5 5.5q31 0 50 -17.5t19 -46.5q0 -20 -11 -40t-36 -43q-17 -15 -33 -27.5
t-42 -31.5l-18 -14l-4 -3h38l25 -2q5 -1 8.5 -1h7.5q28 0 44 31h11l-19 -58q-9 -2 -16 -2.5t-18 -0.5h-15.5t-19.5 1l-25 3q-8 1 -14.5 1.5t-11.5 0.5q-20 0 -49 -7v12z" />
    <glyph glyph-name="uni00B3" unicode="&#xb3;" horiz-adv-x="222" 
d="M153 366h-64q-19 0 -27 -5t-17 -22h-13l26 61q11 -4 19 -4q8 -1 17 -1.5t16 -0.5h74l4 -10l-74 -76q26 -8 41.5 -27t15.5 -45q0 -20 -8 -37t-22.5 -30.5t-33 -21t-39.5 -7.5q-31 0 -52 15.5t-21 37.5q0 13 7.5 21.5t21.5 9.5q-1 -5 -1 -13q0 -24 16 -40.5t39 -16.5
q27 0 47 19.5t20 45.5q0 25 -18 45t-47 25z" />
    <glyph glyph-name="acute" unicode="&#xb4;" 
d="M239 326l80 81l32 -9l-102 -76z" />
    <glyph glyph-name="mu" unicode="&#xb5;" horiz-adv-x="276" 
d="M-23 -93q23 1 30 5.5t11 21.5q0 3 5 26t12 56t15 71.5t15 71.5t12 56t6 26q2 10 2 12q0 9 -7 11t-25 3l3 13q17 0 35 0.5t35 1.5l-48 -225q-1 -4 -1 -7.5v-6.5q0 -16 8 -24t22 -8q13 0 27 8q20 12 34.5 35t19.5 48q1 7 5.5 27t9.5 42.5t9 42.5t6 27q1 5 1 12q0 9 -6.5 11
t-24.5 3l3 13q17 0 35 0.5t35 1.5l-52 -243q-2 -10 -2 -12q0 -9 7.5 -11.5t25.5 -3.5l-2 -12q-18 -1 -35.5 -1.5t-35.5 -0.5l9 43h-1q-16 -20 -34.5 -34t-47.5 -14q-8 0 -15 1t-12 5l-22 -104h-69z" />
    <glyph glyph-name="paragraph" unicode="&#xb6;" horiz-adv-x="374" 
d="M206 525q-10 -20 -22 -38.5t-28 -36.5q-42 -49 -81 -49q-29 0 -46.5 21t-17.5 56q0 32 13.5 68t38.5 68q54 72 115 72q35 0 58 -24l4 17l45 19l-179 -728h-27zM231 637q-15 35 -50 35q-20 0 -42 -15.5t-39 -41.5q-21 -35 -33.5 -72.5t-12.5 -67.5q0 -23 10 -36.5
t29 -13.5q18 0 38 16.5t39 44t34 62.5t23 71zM300 679l45 19l-179 -728h-27z" />
    <glyph glyph-name="periodcentered" unicode="&#xb7;" horiz-adv-x="163" 
d="M96 212q0 -20 -12.5 -34t-29.5 -14q-34 0 -34 34q0 20 12.5 34.5t29.5 14.5q15 0 24.5 -10t9.5 -25z" />
    <glyph glyph-name="cedilla" unicode="&#xb8;" 
d="M126 -96q9 -9 22 -9q14 0 25 10.5t11 24.5q0 16 -14 16q-5 0 -12 -4l-10 4l30 55l12 -1l-23 -42l7.5 1.5t4.5 0.5q13 0 20.5 -8t7.5 -22q0 -20 -14.5 -33t-36.5 -13q-19 0 -35 11z" />
    <glyph glyph-name="uni00B9" unicode="&#xb9;" horiz-adv-x="222" 
d="M26 158h12q14 0 19.5 4.5t8.5 19.5l2 9v-1l26 129l3 10q0 2 0.5 5.5t0.5 5.5q0 6 -3 6q-1 0 -11 -4q-1 0 -1.5 -0.5t-1.5 -0.5l-30 -16l-2 12l9 5h-1l34 24l18 13l22 15h15q-5 -15 -8.5 -27t-8.5 -33l-3 -14l-27 -129q-2 -6 -2.5 -13t-0.5 -10q0 -6 3 -8t14 -2h15l-2 -12
h-101z" />
    <glyph glyph-name="ordmasculine" unicode="&#xba;" horiz-adv-x="222" 
d="M50 485q0 22 9 43t24 37.5t34 27t39 10.5q27 0 44.5 -17.5t17.5 -45.5q0 -23 -9.5 -44.5t-24.5 -38.5t-34 -27.5t-38 -10.5q-29 0 -45.5 18.5t-16.5 47.5zM109 561q-11 -19 -18.5 -42t-7.5 -43q0 -45 32 -45q26 0 45 36q11 18 17 42t6 43q0 17 -8 28.5t-22 11.5
q-11 0 -22.5 -8.5t-22.5 -22.5h1zM180 338h-160l5 22h159z" />
    <glyph glyph-name="guillemotright" unicode="&#xbb;" horiz-adv-x="263" 
d="M141 149l-16 99h8q8 -27 21 -53t32 -46q-51 -43 -97 -100h-9zM70 149l-15 99h8q7 -27 20.5 -53t32.5 -46q-26 -21 -50 -46.5t-47 -53.5h-9z" />
    <glyph glyph-name="onequarter" unicode="&#xbc;" horiz-adv-x="444" 
d="M16 158h12q14 0 19.5 4.5t8.5 19.5l2 9v-1l26 129l3 10q0 2 0.5 5.5t0.5 5.5q0 6 -3 6q-1 0 -11 -4q-1 0 -1.5 -0.5t-1.5 -0.5l-30 -16l-2 12l9 5h-1l34 24l18 13l22 15h15q-5 -15 -8.5 -27t-8.5 -33l-3 -14l-27 -129q-2 -6 -2.5 -13t-0.5 -10q0 -6 3 -8t14 -2h15l-2 -12
h-101zM301 76q-14 3 -23.5 4t-19.5 1q-26 0 -45 -11l-9 9q12 10 22.5 24t23.5 36q13 21 20.5 43t7.5 39q0 4 -0.5 7t-2.5 11l39 22q0 -2 0.5 -6t0.5 -7q0 -20 -6.5 -38.5t-23.5 -47.5q-9 -15 -24.5 -35t-29.5 -37q21 7 34.5 10t27.5 3h8t8 -2h1q5 19 10 37t10 37l17 8
l-14 -85q11 -2 15 -2.5t11 -0.5q8 0 14.5 1.5t21.5 6.5l-13 -31q-9 -3 -14 -3.5t-12 -0.5h-13t-14 2l-11 -70h-34zM39 -10l307 438l11 -8l-307 -438z" />
    <glyph glyph-name="onehalf" unicode="&#xbd;" horiz-adv-x="444" 
d="M16 158h12q14 0 19.5 4.5t8.5 19.5l2 9v-1l26 129l3 10q0 2 0.5 5.5t0.5 5.5q0 6 -3 6q-1 0 -11 -4q-1 0 -1.5 -0.5t-1.5 -0.5l-30 -16l-2 12l9 5h-1l34 24l18 13l22 15h15q-5 -15 -8.5 -27t-8.5 -33l-3 -14l-27 -129q-2 -6 -2.5 -13t-0.5 -10q0 -6 3 -8t14 -2h15l-2 -12
h-101zM390 190q0 -20 -11 -40t-36 -43q-17 -15 -33 -27.5t-42 -31.5l-18 -14l-4 -3h38l25 -2q5 -1 8.5 -1h7.5q28 0 44 31h11l-19 -58q-9 -2 -16 -2.5t-18 -0.5h-15.5t-19.5 1l-25 3q-8 1 -14.5 1.5t-11.5 0.5q-20 0 -49 -7v12q18 12 46 33.5t49 39.5q38 32 54 56.5t16 50.5
q0 23 -12.5 37.5t-32.5 14.5t-35 -13.5t-15 -30.5q0 -19 20 -24q-8 -12 -20 -12t-19.5 7.5t-7.5 18.5q0 13 7 25t19 21.5t27.5 15t32.5 5.5q31 0 50 -17.5t19 -46.5zM346 428l11 -8l-307 -438l-11 8z" />
    <glyph glyph-name="threequarters" unicode="&#xbe;" horiz-adv-x="444" 
d="M153 366h-64q-19 0 -27 -5t-17 -22h-13l26 61q11 -4 19 -4q8 -1 17 -1.5t16 -0.5h74l4 -10l-74 -76q26 -8 41.5 -27t15.5 -45q0 -20 -8 -37t-22.5 -30.5t-33 -21t-39.5 -7.5q-31 0 -52 15.5t-21 37.5q0 13 7.5 21.5t21.5 9.5q-1 -5 -1 -13q0 -24 16 -40.5t39 -16.5
q27 0 47 19.5t20 45.5q0 25 -18 45t-47 25zM316 76q-14 3 -23.5 4t-19.5 1q-26 0 -45 -11l-9 9q12 10 22.5 24t23.5 36q13 21 20.5 43t7.5 39q0 4 -0.5 7t-2.5 11l39 22q0 -2 0.5 -6t0.5 -7q0 -20 -6.5 -38.5t-23.5 -47.5q-9 -15 -24.5 -35t-29.5 -37q21 7 34.5 10t27.5 3h8
t8 -2h1q5 19 10 37t10 37l17 8l-14 -85q11 -2 15 -2.5t11 -0.5q8 0 14.5 1.5t21.5 6.5l-13 -31q-9 -3 -14 -3.5t-12 -0.5h-13t-14 2l-11 -70h-34zM54 -10l307 438l11 -8l-307 -438z" />
    <glyph glyph-name="questiondown" unicode="&#xbf;" horiz-adv-x="356" 
d="M274 92q-31 -44 -75.5 -71t-86.5 -27q-37 0 -59.5 22.5t-22.5 60.5t25 85.5t80 113.5l43 53q22 27 36 45t21.5 31t10.5 22.5t3 18.5q0 32 -35 32q-8 0 -15 -2t-21 -7l14 33h5q31 0 50.5 -20t19.5 -52q0 -20 -7 -41t-23 -46q-9 -14 -25.5 -36t-48.5 -62q-7 -8 -18 -22
t-19 -24q-43 -54 -60 -84.5t-17 -52.5q0 -21 14.5 -36t36.5 -15q50 0 112 67q17 17 27.5 32t20.5 32zM246 538q-17 0 -28 11t-11 28t11 28.5t28 11.5t28.5 -11.5t11.5 -28.5t-11.5 -28t-28.5 -11z" />
    <glyph glyph-name="Agrave" unicode="&#xc0;" horiz-adv-x="652" 
d="M-24 16q13 -2 21 -2.5t18 -0.5q133 0 238 105q42 40 90 115q10 17 22.5 37.5t25 41.5t24 41t19.5 36l46 89q27 52 47 86t36 54t30 28.5t28 8.5q31 0 31 -32q0 -3 -0.5 -8.5t-1.5 -11.5q-1 -14 -3 -19l-75 -351h35l-3 -17h-35l-46 -216h-32q-18 58 -57.5 111.5t-90.5 89.5
q-33 -51 -74 -93t-87.5 -71t-96 -45t-97.5 -16q-8 0 -13.5 0.5t-14.5 2.5zM523 216h-170l2 -1q43 -33 74 -68t62 -84zM526 233l70 332q3 13 3 16q3 10 3 18q0 12 -10 12q-6 0 -13.5 -6t-18.5 -22t-27 -43.5t-38 -70.5q-8 -14 -14 -26.5t-14 -26.5q-9 -17 -11.5 -22t-7.5 -13
l-46 -85q-14 -26 -23 -41.5t-13 -21.5h160zM538 767l29 9l29 -82l-10 -3z" />
    <glyph glyph-name="Aacute" unicode="&#xc1;" horiz-adv-x="652" 
d="M-24 16q13 -2 21 -2.5t18 -0.5q133 0 238 105q42 40 90 115q10 17 22.5 37.5t25 41.5t24 41t19.5 36l46 89q27 52 47 86t36 54t30 28.5t28 8.5q31 0 31 -32q0 -3 -0.5 -8.5t-1.5 -11.5q-1 -14 -3 -19l-75 -351h35l-3 -17h-35l-46 -216h-32q-18 58 -57.5 111.5t-90.5 89.5
q-33 -51 -74 -93t-87.5 -71t-96 -45t-97.5 -16q-8 0 -13.5 0.5t-14.5 2.5zM523 216h-170l2 -1q43 -33 74 -68t62 -84zM526 233l70 332q3 13 3 16q3 10 3 18q0 12 -10 12q-6 0 -13.5 -6t-18.5 -22t-27 -43.5t-38 -70.5q-8 -14 -14 -26.5t-14 -26.5q-9 -17 -11.5 -22t-7.5 -13
l-46 -85q-14 -26 -23 -41.5t-13 -21.5h160zM571 695l80 81l32 -9l-102 -76z" />
    <glyph glyph-name="Acircumflex" unicode="&#xc2;" horiz-adv-x="652" 
d="M-24 16q13 -2 21 -2.5t18 -0.5q133 0 238 105q42 40 90 115q10 17 22.5 37.5t25 41.5t24 41t19.5 36l46 89q27 52 47 86t36 54t30 28.5t28 8.5q31 0 31 -32q0 -3 -0.5 -8.5t-1.5 -11.5q-1 -14 -3 -19l-75 -351h35l-3 -17h-35l-46 -216h-32q-18 58 -57.5 111.5t-90.5 89.5
q-33 -51 -74 -93t-87.5 -71t-96 -45t-97.5 -16q-8 0 -13.5 0.5t-14.5 2.5zM523 216h-170l2 -1q43 -33 74 -68t62 -84zM526 233l70 332q3 13 3 16q3 10 3 18q0 12 -10 12q-6 0 -13.5 -6t-18.5 -22t-27 -43.5t-38 -70.5q-8 -14 -14 -26.5t-14 -26.5q-9 -17 -11.5 -22t-7.5 -13
l-46 -85q-14 -26 -23 -41.5t-13 -21.5h160zM526 706l75 48l57 -48l-6 -7l-57 23l-66 -23z" />
    <glyph glyph-name="Atilde" unicode="&#xc3;" horiz-adv-x="652" 
d="M-24 16q13 -2 21 -2.5t18 -0.5q133 0 238 105q42 40 90 115q10 17 22.5 37.5t25 41.5t24 41t19.5 36l46 89q27 52 47 86t36 54t30 28.5t28 8.5q31 0 31 -32q0 -3 -0.5 -8.5t-1.5 -11.5q-1 -14 -3 -19l-75 -351h35l-3 -17h-35l-46 -216h-32q-18 58 -57.5 111.5t-90.5 89.5
q-33 -51 -74 -93t-87.5 -71t-96 -45t-97.5 -16q-8 0 -13.5 0.5t-14.5 2.5zM523 216h-170l2 -1q43 -33 74 -68t62 -84zM526 233l70 332q3 13 3 16q3 10 3 18q0 12 -10 12q-6 0 -13.5 -6t-18.5 -22t-27 -43.5t-38 -70.5q-8 -14 -14 -26.5t-14 -26.5q-9 -17 -11.5 -22t-7.5 -13
l-46 -85q-14 -26 -23 -41.5t-13 -21.5h160zM522 712q14 15 28.5 24t25.5 9q7 0 12 -2t20 -13q12 -9 19 -9q6 0 15.5 5.5t18.5 15.5l7 -7q-16 -15 -30.5 -24t-24.5 -9q-6 0 -10 1.5t-10 6.5l-11 9q-11 8 -18 8q-14 0 -35 -21z" />
    <glyph glyph-name="Adieresis" unicode="&#xc4;" horiz-adv-x="652" 
d="M-24 16q13 -2 21 -2.5t18 -0.5q133 0 238 105q42 40 90 115q10 17 22.5 37.5t25 41.5t24 41t19.5 36l46 89q27 52 47 86t36 54t30 28.5t28 8.5q31 0 31 -32q0 -3 -0.5 -8.5t-1.5 -11.5q-1 -14 -3 -19l-75 -351h35l-3 -17h-35l-46 -216h-32q-18 58 -57.5 111.5t-90.5 89.5
q-33 -51 -74 -93t-87.5 -71t-96 -45t-97.5 -16q-8 0 -13.5 0.5t-14.5 2.5zM523 216h-170l2 -1q43 -33 74 -68t62 -84zM526 233l70 332q3 13 3 16q3 10 3 18q0 12 -10 12q-6 0 -13.5 -6t-18.5 -22t-27 -43.5t-38 -70.5q-8 -14 -14 -26.5t-14 -26.5q-9 -17 -11.5 -22t-7.5 -13
l-46 -85q-14 -26 -23 -41.5t-13 -21.5h160zM558 747q9 0 15.5 -6.5t6.5 -16.5q0 -9 -6.5 -16t-15.5 -7q-10 0 -17 7t-7 16q0 10 7 16.5t17 6.5zM634 747q9 0 16 -6.5t7 -16.5q0 -9 -7 -16t-16 -7q-10 0 -16.5 7t-6.5 16q0 10 6.5 16.5t16.5 6.5z" />
    <glyph glyph-name="Aring" unicode="&#xc5;" horiz-adv-x="652" 
d="M-24 16q13 -2 21 -2.5t18 -0.5q133 0 238 105q42 40 90 115q10 17 22.5 37.5t25 41.5t24 41t19.5 36l46 89q27 52 47 86t36 54t30 28.5t28 8.5q31 0 31 -32q0 -3 -0.5 -8.5t-1.5 -11.5q-1 -14 -3 -19l-75 -351h35l-3 -17h-35l-46 -216h-32q-18 58 -57.5 111.5t-90.5 89.5
q-33 -51 -74 -93t-87.5 -71t-96 -45t-97.5 -16q-8 0 -13.5 0.5t-14.5 2.5zM523 216h-170l2 -1q43 -33 74 -68t62 -84zM526 233l70 332q3 13 3 16q3 10 3 18q0 12 -10 12q-6 0 -13.5 -6t-18.5 -22t-27 -43.5t-38 -70.5q-8 -14 -14 -26.5t-14 -26.5q-9 -17 -11.5 -22t-7.5 -13
l-46 -85q-14 -26 -23 -41.5t-13 -21.5h160zM598 770q16 0 27 -11t11 -28q0 -16 -11 -27t-27 -11q-17 0 -28 11t-11 27q0 17 11 28t28 11zM598 755q-11 0 -17.5 -6.5t-6.5 -17.5q0 -10 6.5 -16.5t16.5 -6.5q11 0 17.5 6.5t6.5 16.5q0 11 -6.5 17.5t-16.5 6.5z" />
    <glyph glyph-name="AE" unicode="&#xc6;" horiz-adv-x="1019" 
d="M-24 16q13 -2 21 -2.5t18 -0.5q133 0 238 105q42 40 90 115q10 17 22.5 37.5t25 41.5t24 41t19.5 36l46 89q27 52 47 86t36 54t30 28.5t28 8.5q31 0 31 -32l-2 -20q-1 -14 -3 -19l-70 -328q32 29 75.5 57.5t94.5 54.5q-52 9 -52 55q0 65 113 147q56 40 108 62t88 22
q26 0 40.5 -14t14.5 -37q0 -35 -24 -79.5t-66 -85.5l-26 28q37 40 57 75t20 59q0 33 -41 33q-25 0 -62.5 -15t-73.5 -40q-50 -34 -78 -71t-28 -67q0 -14 8.5 -27t22.5 -18q9 -3 18 -4t29 -2h9l-7 -32q-20 -9 -47 -23t-56.5 -32t-58 -40t-51.5 -46h-1q-19 -20 -32.5 -41
t-19.5 -44l-4 -17q-1 -4 -1 -7.5v-6.5q0 -40 30.5 -65t80.5 -25q51 0 118.5 23t160.5 74l-12 -59q-63 -29 -122.5 -44.5t-108.5 -15.5q-58 0 -98.5 17.5t-60.5 49.5l-11 -55h-32q-18 58 -57.5 111.5t-90.5 89.5q-33 -51 -74 -93t-87.5 -71t-96 -45t-97.5 -16q-8 0 -13.5 0.5
t-14.5 2.5zM526 233l70 332l3 16q3 10 3 18q0 12 -10 12q-6 0 -13.5 -6t-18.5 -22t-27 -43.5t-38 -70.5l-28 -53q-9 -17 -11.5 -22t-7.5 -13l-46 -85q-14 -26 -23 -41.5t-13 -21.5h160zM523 216h-170l2 -1q43 -33 74 -68t62 -84z" />
    <glyph glyph-name="Ccedilla" unicode="&#xc7;" horiz-adv-x="482" 
d="M126 -99q9 -9 22 -9q14 0 25 10.5t11 24.5q0 16 -14 16q-5 0 -12 -4l-10 4l25 46q-74 8 -116.5 63t-42.5 141q0 68 29 142.5t84 146.5q29 39 62.5 70.5t67.5 54t67 35t62 12.5q35 0 55.5 -20t20.5 -53q0 -29 -15 -59.5t-39.5 -57.5t-57 -48t-68.5 -31l-14 37
q36 10 67.5 28.5t55 41t37 47.5t13.5 49q0 23 -15.5 37.5t-41.5 14.5q-23 0 -49.5 -9.5t-54 -27t-54 -41.5t-50.5 -53q-108 -135 -108 -295q0 -92 42 -145.5t114 -53.5q47 0 91.5 21t101.5 71l8 6l6 -10q-58 -57 -116.5 -86.5t-117.5 -29.5h-5t-7 1l-18 -33l7.5 1.5t4.5 0.5
q13 0 20.5 -8t7.5 -22q0 -20 -14.5 -33t-36.5 -13q-19 0 -35 11z" />
    <glyph glyph-name="Egrave" unicode="&#xc8;" horiz-adv-x="501" 
d="M406 48q-63 -29 -122.5 -44.5t-108.5 -15.5q-81 0 -128 34.5t-47 94.5q0 66 59.5 131t169.5 120q-52 9 -52 55q0 65 113 147q56 40 108 62t88 22q26 0 40.5 -14t14.5 -37q0 -35 -24 -79.5t-66 -85.5l-26 28q37 40 57 75t20 59q0 33 -41 33q-25 0 -62.5 -15t-73.5 -40
q-50 -34 -78 -71t-28 -67q0 -14 8.5 -27t22.5 -18q9 -3 18 -4t29 -2h9l-7 -32q-39 -17 -73.5 -37t-74.5 -49q-123 -91 -123 -171q0 -40 30.5 -65t80.5 -25q51 0 118.5 23t160.5 74zM422 767l29 9l29 -82l-10 -3z" />
    <glyph glyph-name="Eacute" unicode="&#xc9;" horiz-adv-x="501" 
d="M406 48q-63 -29 -122.5 -44.5t-108.5 -15.5q-81 0 -128 34.5t-47 94.5q0 66 59.5 131t169.5 120q-52 9 -52 55q0 65 113 147q56 40 108 62t88 22q26 0 40.5 -14t14.5 -37q0 -35 -24 -79.5t-66 -85.5l-26 28q37 40 57 75t20 59q0 33 -41 33q-25 0 -62.5 -15t-73.5 -40
q-50 -34 -78 -71t-28 -67q0 -14 8.5 -27t22.5 -18q9 -3 18 -4t29 -2h9l-7 -32q-39 -17 -73.5 -37t-74.5 -49q-123 -91 -123 -171q0 -40 30.5 -65t80.5 -25q51 0 118.5 23t160.5 74zM455 695l80 81l32 -9l-102 -76z" />
    <glyph glyph-name="Ecircumflex" unicode="&#xca;" horiz-adv-x="501" 
d="M406 48q-63 -29 -122.5 -44.5t-108.5 -15.5q-81 0 -128 34.5t-47 94.5q0 66 59.5 131t169.5 120q-52 9 -52 55q0 65 113 147q56 40 108 62t88 22q26 0 40.5 -14t14.5 -37q0 -35 -24 -79.5t-66 -85.5l-26 28q37 40 57 75t20 59q0 33 -41 33q-25 0 -62.5 -15t-73.5 -40
q-50 -34 -78 -71t-28 -67q0 -14 8.5 -27t22.5 -18q9 -3 18 -4t29 -2h9l-7 -32q-39 -17 -73.5 -37t-74.5 -49q-123 -91 -123 -171q0 -40 30.5 -65t80.5 -25q51 0 118.5 23t160.5 74zM410 706l75 48l57 -48l-6 -7l-57 23l-66 -23z" />
    <glyph glyph-name="Edieresis" unicode="&#xcb;" horiz-adv-x="501" 
d="M406 48q-63 -29 -122.5 -44.5t-108.5 -15.5q-81 0 -128 34.5t-47 94.5q0 66 59.5 131t169.5 120q-52 9 -52 55q0 65 113 147q56 40 108 62t88 22q26 0 40.5 -14t14.5 -37q0 -35 -24 -79.5t-66 -85.5l-26 28q37 40 57 75t20 59q0 33 -41 33q-25 0 -62.5 -15t-73.5 -40
q-50 -34 -78 -71t-28 -67q0 -14 8.5 -27t22.5 -18q9 -3 18 -4t29 -2h9l-7 -32q-39 -17 -73.5 -37t-74.5 -49q-123 -91 -123 -171q0 -40 30.5 -65t80.5 -25q51 0 118.5 23t160.5 74zM442 747q9 0 15.5 -6.5t6.5 -16.5q0 -9 -6.5 -16t-15.5 -7q-10 0 -17 7t-7 16q0 10 7 16.5
t17 6.5zM518 747q9 0 16 -6.5t7 -16.5q0 -9 -7 -16t-16 -7q-10 0 -16.5 7t-6.5 16q0 10 6.5 16.5t16.5 6.5z" />
    <glyph glyph-name="Igrave" unicode="&#xcc;" horiz-adv-x="426" 
d="M-18 26q43 -19 95 -19q63 0 114 42q29 23 50.5 53t45.5 81l3 8q-40 26 -59 70t-19 112q0 47 13.5 98.5t39.5 99.5q22 42 45.5 64.5t45.5 22.5q29 0 45 -34.5t16 -100.5q0 -37 -6.5 -81t-18 -88.5t-26.5 -86.5t-33 -75q8 -4 14.5 -5t14.5 -1q9 0 15.5 1t17.5 5l-4 -14
q-9 -2 -15.5 -3t-16.5 -1t-17 1t-18 3q-60 -102 -133.5 -149t-172.5 -47q-18 0 -29 1t-22 5zM298 207q9 20 17.5 46t18.5 64q10 37 18 75t14 71.5t9 62t3 47.5q0 69 -31 69q-18 0 -35.5 -26.5t-31.5 -68.5t-23 -94t-9 -104q0 -108 50 -142zM295 767l29 9l29 -82l-10 -3z" />
    <glyph glyph-name="Iacute" unicode="&#xcd;" horiz-adv-x="426" 
d="M-18 26q43 -19 95 -19q63 0 114 42q29 23 50.5 53t45.5 81l3 8q-40 26 -59 70t-19 112q0 47 13.5 98.5t39.5 99.5q22 42 45.5 64.5t45.5 22.5q29 0 45 -34.5t16 -100.5q0 -37 -6.5 -81t-18 -88.5t-26.5 -86.5t-33 -75q8 -4 14.5 -5t14.5 -1q9 0 15.5 1t17.5 5l-4 -14
q-9 -2 -15.5 -3t-16.5 -1t-17 1t-18 3q-60 -102 -133.5 -149t-172.5 -47q-18 0 -29 1t-22 5zM298 207q9 20 17.5 46t18.5 64q10 37 18 75t14 71.5t9 62t3 47.5q0 69 -31 69q-18 0 -35.5 -26.5t-31.5 -68.5t-23 -94t-9 -104q0 -108 50 -142zM328 695l80 81l32 -9l-102 -76z
" />
    <glyph glyph-name="Icircumflex" unicode="&#xce;" horiz-adv-x="426" 
d="M-18 26q43 -19 95 -19q63 0 114 42q29 23 50.5 53t45.5 81l3 8q-40 26 -59 70t-19 112q0 47 13.5 98.5t39.5 99.5q22 42 45.5 64.5t45.5 22.5q29 0 45 -34.5t16 -100.5q0 -37 -6.5 -81t-18 -88.5t-26.5 -86.5t-33 -75q8 -4 14.5 -5t14.5 -1q9 0 15.5 1t17.5 5l-4 -14
q-9 -2 -15.5 -3t-16.5 -1t-17 1t-18 3q-60 -102 -133.5 -149t-172.5 -47q-18 0 -29 1t-22 5zM298 207q9 20 17.5 46t18.5 64q10 37 18 75t14 71.5t9 62t3 47.5q0 69 -31 69q-18 0 -35.5 -26.5t-31.5 -68.5t-23 -94t-9 -104q0 -108 50 -142zM283 706l75 48l57 -48l-6 -7
l-57 23l-66 -23z" />
    <glyph glyph-name="Idieresis" unicode="&#xcf;" horiz-adv-x="426" 
d="M-18 26q43 -19 95 -19q63 0 114 42q29 23 50.5 53t45.5 81l3 8q-40 26 -59 70t-19 112q0 47 13.5 98.5t39.5 99.5q22 42 45.5 64.5t45.5 22.5q29 0 45 -34.5t16 -100.5q0 -37 -6.5 -81t-18 -88.5t-26.5 -86.5t-33 -75q8 -4 14.5 -5t14.5 -1q9 0 15.5 1t17.5 5l-4 -14
q-9 -2 -15.5 -3t-16.5 -1t-17 1t-18 3q-60 -102 -133.5 -149t-172.5 -47q-18 0 -29 1t-22 5zM298 207q9 20 17.5 46t18.5 64q10 37 18 75t14 71.5t9 62t3 47.5q0 69 -31 69q-18 0 -35.5 -26.5t-31.5 -68.5t-23 -94t-9 -104q0 -108 50 -142zM315 747q9 0 15.5 -6.5t6.5 -16.5
q0 -9 -6.5 -16t-15.5 -7q-10 0 -17 7t-7 16q0 10 7 16.5t17 6.5zM391 747q9 0 16 -6.5t7 -16.5q0 -9 -7 -16t-16 -7q-10 0 -16.5 7t-6.5 16q0 10 6.5 16.5t16.5 6.5z" />
    <glyph glyph-name="Eth" unicode="&#xd0;" horiz-adv-x="709" 
d="M208 24q-38 -21 -71 -30.5t-68 -9.5q-38 0 -60 13.5t-22 36.5q0 26 27.5 42t72.5 16q23 0 54.5 -6t80.5 -20l12 -3q17 17 30 35t30 50q8 15 15.5 31.5t15.5 34.5h-90l5 22h94q11 28 21.5 62.5l24.5 80.5q12 44 19.5 73t13.5 59q-27 21 -59.5 39t-65 30.5t-64 20
t-56.5 7.5q-42 0 -66 -18.5t-24 -50.5q0 -30 28 -60t76 -51l-30 -30q-42 22 -67 57t-25 73q0 24 10 44t28 34.5t42.5 22.5t54.5 8q98 0 228 -80q5 19 8 38.5t4 34.5l54 23q-4 -23 -6.5 -39t-6.5 -30l-9 -42l-4 -15q87 -66 135 -146.5t48 -159.5q0 -51 -18.5 -94t-52 -74
t-79 -48.5t-99.5 -17.5q-83 0 -177 33zM266 52q57 -18 99 -26t78 -8q38 0 71 14.5t57.5 39.5t38.5 59t14 74q0 136 -172 278q-2 -9 -3.5 -16t-4 -16t-5.5 -20.5t-8 -28.5q-9 -30 -15 -49.5t-11 -34t-9.5 -27t-11.5 -29.5q-3 -7 -5.5 -13.5t-5.5 -12.5h118l-4 -22h-124
q-24 -54 -51 -91.5t-59 -66.5zM190 30q-42 13 -78 20t-60 7q-21 0 -33 -7t-12 -20q0 -14 18.5 -23.5t47.5 -9.5t57.5 8t59.5 25z" />
    <glyph glyph-name="Ntilde" unicode="&#xd1;" horiz-adv-x="513" 
d="M75 10q7 26 16 60.5t18.5 75t19.5 85t19 89.5q13 66 27 141q8 46 12 74.5t4 47.5q0 29 -8.5 45.5t-23.5 16.5q-40 0 -66 -98q-10 -33 -17.5 -70.5t-10.5 -64.5l-38 26q7 48 20.5 88.5t31 70.5t37.5 46.5t40 16.5q32 0 49.5 -33.5t17.5 -93.5q0 -26 -2 -49t-8 -58
q-4 -24 -7.5 -46.5t-5.5 -33.5l-25 -121l4 11q41 100 80.5 177.5t73.5 124.5q60 83 112 83q24 0 39.5 -17t15.5 -44q0 -9 -2.5 -27t-5.5 -33l-110 -500h-47l112 508q4 18 5.5 27t1.5 18q0 36 -31 36q-42 0 -103 -97q-24 -39 -49 -87.5t-48.5 -101t-44 -106.5t-36.5 -105
l-26 -83l-3 -9h-41zM272 712q14 15 28.5 24t25.5 9q7 0 12 -2t20 -13q12 -9 19 -9q6 0 15.5 5.5t18.5 15.5l7 -7q-16 -15 -30.5 -24t-24.5 -9q-6 0 -10 1.5t-10 6.5l-11 9q-11 8 -18 8q-14 0 -35 -21z" />
    <glyph glyph-name="Ograve" unicode="&#xd2;" horiz-adv-x="598" 
d="M578 419q0 -66 -22 -134.5t-64 -130.5q-53 -78 -123 -120t-148 -42q-47 0 -85.5 16t-65.5 46t-42 72t-15 94q0 84 30 162t79.5 138t113.5 96.5t133 36.5q47 0 85.5 -17t66 -47.5t42.5 -74t15 -95.5zM521 439q0 92 -43 144t-120 52q-63 0 -119 -40t-98 -114
q-16 -29 -29.5 -62.5t-23 -69t-14.5 -71.5t-5 -69q0 -92 44 -146t118 -54q34 0 68 13t65 37t57 58.5t46 76.5q12 26 22 57t17 63.5t11 64.5t4 60zM331 767l29 9l29 -82l-10 -3z" />
    <glyph glyph-name="Oacute" unicode="&#xd3;" horiz-adv-x="598" 
d="M578 419q0 -66 -22 -134.5t-64 -130.5q-53 -78 -123 -120t-148 -42q-47 0 -85.5 16t-65.5 46t-42 72t-15 94q0 84 30 162t79.5 138t113.5 96.5t133 36.5q47 0 85.5 -17t66 -47.5t42.5 -74t15 -95.5zM521 439q0 92 -43 144t-120 52q-63 0 -119 -40t-98 -114
q-16 -29 -29.5 -62.5t-23 -69t-14.5 -71.5t-5 -69q0 -92 44 -146t118 -54q34 0 68 13t65 37t57 58.5t46 76.5q12 26 22 57t17 63.5t11 64.5t4 60zM364 695l80 81l32 -9l-102 -76z" />
    <glyph glyph-name="Ocircumflex" unicode="&#xd4;" horiz-adv-x="598" 
d="M578 419q0 -66 -22 -134.5t-64 -130.5q-53 -78 -123 -120t-148 -42q-47 0 -85.5 16t-65.5 46t-42 72t-15 94q0 84 30 162t79.5 138t113.5 96.5t133 36.5q47 0 85.5 -17t66 -47.5t42.5 -74t15 -95.5zM521 439q0 92 -43 144t-120 52q-63 0 -119 -40t-98 -114
q-16 -29 -29.5 -62.5t-23 -69t-14.5 -71.5t-5 -69q0 -92 44 -146t118 -54q34 0 68 13t65 37t57 58.5t46 76.5q12 26 22 57t17 63.5t11 64.5t4 60zM319 706l75 48l57 -48l-6 -7l-57 23l-66 -23z" />
    <glyph glyph-name="Otilde" unicode="&#xd5;" horiz-adv-x="598" 
d="M578 419q0 -66 -22 -134.5t-64 -130.5q-53 -78 -123 -120t-148 -42q-47 0 -85.5 16t-65.5 46t-42 72t-15 94q0 84 30 162t79.5 138t113.5 96.5t133 36.5q47 0 85.5 -17t66 -47.5t42.5 -74t15 -95.5zM521 439q0 92 -43 144t-120 52q-63 0 -119 -40t-98 -114
q-16 -29 -29.5 -62.5t-23 -69t-14.5 -71.5t-5 -69q0 -92 44 -146t118 -54q34 0 68 13t65 37t57 58.5t46 76.5q12 26 22 57t17 63.5t11 64.5t4 60zM315 712q14 15 28.5 24t25.5 9q7 0 12 -2t20 -13q12 -9 19 -9q6 0 15.5 5.5t18.5 15.5l7 -7q-16 -15 -30.5 -24t-24.5 -9
q-6 0 -10 1.5t-10 6.5l-11 9q-11 8 -18 8q-14 0 -35 -21z" />
    <glyph glyph-name="Odieresis" unicode="&#xd6;" horiz-adv-x="598" 
d="M578 419q0 -66 -22 -134.5t-64 -130.5q-53 -78 -123 -120t-148 -42q-47 0 -85.5 16t-65.5 46t-42 72t-15 94q0 84 30 162t79.5 138t113.5 96.5t133 36.5q47 0 85.5 -17t66 -47.5t42.5 -74t15 -95.5zM521 439q0 92 -43 144t-120 52q-63 0 -119 -40t-98 -114
q-16 -29 -29.5 -62.5t-23 -69t-14.5 -71.5t-5 -69q0 -92 44 -146t118 -54q34 0 68 13t65 37t57 58.5t46 76.5q12 26 22 57t17 63.5t11 64.5t4 60zM351 747q9 0 15.5 -6.5t6.5 -16.5q0 -9 -6.5 -16t-15.5 -7q-10 0 -17 7t-7 16q0 10 7 16.5t17 6.5zM427 747q9 0 16 -6.5
t7 -16.5q0 -9 -7 -16t-16 -7q-10 0 -16.5 7t-6.5 16q0 10 6.5 16.5t16.5 6.5z" />
    <glyph glyph-name="multiply" unicode="&#xd7;" horiz-adv-x="400" 
d="M22 111l152 153l-147 147l27 27l147 -147l147 147l29 -29l-147 -147l147 -147l-27 -27l-147 147l-153 -152z" />
    <glyph glyph-name="Oslash" unicode="&#xd8;" horiz-adv-x="598" 
d="M-58 -2l99 97q-28 53 -28 125q0 84 30 162t79.5 138t113.5 96.5t133 36.5q52 0 93.5 -20.5t69.5 -58.5l102 99l15 -15l-105 -102q34 -59 34 -137q0 -66 -22 -134.5t-64 -130.5q-53 -78 -123 -120t-148 -42q-56 0 -99 22t-70 62l-95 -93zM521 439q0 45 -12 83l-423 -413
q20 -48 57 -74t88 -26q34 0 68 13t65 37t57 58.5t46 76.5q12 26 22 57t17 63.5t11 64.5t4 60zM501 544q-19 44 -55.5 67.5t-87.5 23.5q-63 0 -119 -40t-98 -114q-16 -29 -29.5 -62.5t-23 -69t-14.5 -71.5t-5 -69q0 -45 10 -78z" />
    <glyph glyph-name="Ugrave" unicode="&#xd9;" horiz-adv-x="509" 
d="M340 12q9 63 20.5 122t27.5 122l45 178l-4.5 -10.5t-2.5 -5.5l-18 -45q-10 -23 -22 -50.5t-25.5 -56t-27 -55.5t-25.5 -49q-94 -172 -171 -172q-25 0 -40 16.5t-15 45.5q0 10 2.5 24t8.5 40l79 343l12 56q5 23 7 40.5t2 31.5q0 51 -28 51q-17 0 -31.5 -17t-25.5 -49
q-27 -76 -40 -164l-38 26q8 48 21.5 88t30.5 68.5t37.5 44.5t41.5 16q30 0 46.5 -29.5t16.5 -82.5q0 -15 -1 -30.5t-4 -33.5t-7.5 -41t-11.5 -53l-60 -262l-5 -22q-6 -27 -6 -40q0 -16 8 -26t22 -10q35 0 80 60t107 188q28 58 51.5 115t46.5 127q14 40 21.5 64.5t13.5 50.5
l42 17l-96 -425q-6 -24 -11.5 -52t-11 -56.5t-10 -57t-7.5 -52.5h-46zM286 767l29 9l29 -82l-10 -3z" />
    <glyph glyph-name="Uacute" unicode="&#xda;" horiz-adv-x="509" 
d="M340 12q9 63 20.5 122t27.5 122l45 178l-4.5 -10.5t-2.5 -5.5l-18 -45q-10 -23 -22 -50.5t-25.5 -56t-27 -55.5t-25.5 -49q-94 -172 -171 -172q-25 0 -40 16.5t-15 45.5q0 10 2.5 24t8.5 40l79 343l12 56q5 23 7 40.5t2 31.5q0 51 -28 51q-17 0 -31.5 -17t-25.5 -49
q-27 -76 -40 -164l-38 26q8 48 21.5 88t30.5 68.5t37.5 44.5t41.5 16q30 0 46.5 -29.5t16.5 -82.5q0 -15 -1 -30.5t-4 -33.5t-7.5 -41t-11.5 -53l-60 -262l-5 -22q-6 -27 -6 -40q0 -16 8 -26t22 -10q35 0 80 60t107 188q28 58 51.5 115t46.5 127q14 40 21.5 64.5t13.5 50.5
l42 17l-96 -425q-6 -24 -11.5 -52t-11 -56.5t-10 -57t-7.5 -52.5h-46zM319 695l80 81l32 -9l-102 -76z" />
    <glyph glyph-name="Ucircumflex" unicode="&#xdb;" horiz-adv-x="509" 
d="M340 12q9 63 20.5 122t27.5 122l45 178l-4.5 -10.5t-2.5 -5.5l-18 -45q-10 -23 -22 -50.5t-25.5 -56t-27 -55.5t-25.5 -49q-94 -172 -171 -172q-25 0 -40 16.5t-15 45.5q0 10 2.5 24t8.5 40l79 343l12 56q5 23 7 40.5t2 31.5q0 51 -28 51q-17 0 -31.5 -17t-25.5 -49
q-27 -76 -40 -164l-38 26q8 48 21.5 88t30.5 68.5t37.5 44.5t41.5 16q30 0 46.5 -29.5t16.5 -82.5q0 -15 -1 -30.5t-4 -33.5t-7.5 -41t-11.5 -53l-60 -262l-5 -22q-6 -27 -6 -40q0 -16 8 -26t22 -10q35 0 80 60t107 188q28 58 51.5 115t46.5 127q14 40 21.5 64.5t13.5 50.5
l42 17l-96 -425q-6 -24 -11.5 -52t-11 -56.5t-10 -57t-7.5 -52.5h-46zM274 706l75 48l57 -48l-6 -7l-57 23l-66 -23z" />
    <glyph glyph-name="Udieresis" unicode="&#xdc;" horiz-adv-x="509" 
d="M340 12q9 63 20.5 122t27.5 122l45 178l-4.5 -10.5t-2.5 -5.5l-18 -45q-10 -23 -22 -50.5t-25.5 -56t-27 -55.5t-25.5 -49q-94 -172 -171 -172q-25 0 -40 16.5t-15 45.5q0 10 2.5 24t8.5 40l79 343l12 56q5 23 7 40.5t2 31.5q0 51 -28 51q-17 0 -31.5 -17t-25.5 -49
q-27 -76 -40 -164l-38 26q8 48 21.5 88t30.5 68.5t37.5 44.5t41.5 16q30 0 46.5 -29.5t16.5 -82.5q0 -15 -1 -30.5t-4 -33.5t-7.5 -41t-11.5 -53l-60 -262l-5 -22q-6 -27 -6 -40q0 -16 8 -26t22 -10q35 0 80 60t107 188q28 58 51.5 115t46.5 127q14 40 21.5 64.5t13.5 50.5
l42 17l-96 -425q-6 -24 -11.5 -52t-11 -56.5t-10 -57t-7.5 -52.5h-46zM306 747q9 0 15.5 -6.5t6.5 -16.5q0 -9 -6.5 -16t-15.5 -7q-10 0 -17 7t-7 16q0 10 7 16.5t17 6.5zM382 747q9 0 16 -6.5t7 -16.5q0 -9 -7 -16t-16 -7q-10 0 -16.5 7t-6.5 16q0 10 6.5 16.5t16.5 6.5z
" />
    <glyph glyph-name="Yacute" unicode="&#xdd;" horiz-adv-x="508" 
d="M37 29q24 -9 47.5 -13t49.5 -4q63 0 110 28t85 90q20 30 36 65t31 80q4 13 8.5 25.5t9 28.5t10.5 37.5t14 51.5l4 14l-7 -13q-12 -24 -22 -42.5t-21.5 -35.5t-24.5 -33.5t-29 -35.5q-31 -38 -55 -54.5t-47 -16.5q-37 0 -51 36q-6 18 -6 59v21l9 251v16q0 58 -31 58
q-29 0 -53 -58t-38 -164l-2 -12l-37 24q3 21 8 43t11.5 44t14.5 41t16 34q37 63 80 63q36 0 55.5 -35t19.5 -103q0 -6 -0.5 -13.5t-0.5 -15.5l-6 -164q-1 -8 -1 -15.5v-12.5q0 -61 37 -61q18 0 37 14.5t47 48.5q52 64 87 145.5t48 169.5l55 25l-3 -15q-14 -76 -32.5 -148
t-39.5 -135t-43.5 -114t-44.5 -84q-54 -81 -126 -119.5t-172 -38.5q-17 0 -29.5 1t-24.5 4zM329 695l80 81l32 -9l-102 -76z" />
    <glyph glyph-name="Thorn" unicode="&#xde;" horiz-adv-x="476" 
d="M94 282q17 77 26 153.5t9 139.5v11t-1 16l54 24v-13q0 -76 -10 -149.5t-26 -151.5q23 54 54.5 101t65 82t67.5 55t63 20q38 0 61.5 -30.5t23.5 -81.5q0 -66 -29 -131t-75 -117.5t-103.5 -85t-115.5 -32.5h-15t-15 2l26 35q24 -7 49 -7q41 0 81.5 26.5t72.5 76.5
q15 22 28 51.5t22.5 61t15.5 62t6 55.5q0 42 -13.5 64.5t-39.5 22.5q-35 0 -80.5 -40t-90.5 -109q-32 -51 -53 -105.5t-38 -131.5l-34 -156h-47z" />
    <glyph glyph-name="germandbls" unicode="&#xdf;" horiz-adv-x="299" 
d="M85 490q5 26 9 45t8.5 33t9.5 25t11 22q20 33 46.5 53t52.5 20q28 0 46 -19.5t18 -51.5q0 -40 -27.5 -92t-81.5 -113q-20 -22 -26.5 -34t-6.5 -24q0 -18 23 -44q13 -15 22 -25.5t14.5 -18t9.5 -13.5t8 -14q21 -39 21 -81q0 -32 -11.5 -62t-30.5 -53t-44 -37t-51 -14
q-41 0 -63 29l23 29q20 -38 58 -38q19 0 35.5 10t29 26.5t20 39t7.5 47.5q0 27 -9.5 52.5t-26.5 45.5l-35 42q-25 29 -25 57q0 33 27 65l33 37q38 45 56.5 85.5t18.5 82.5q0 30 -12.5 49t-32.5 19q-25 0 -38.5 -19.5t-24.5 -70.5l-128 -576l-31 -10z" />
    <glyph glyph-name="agrave" unicode="&#xe0;" horiz-adv-x="325" 
d="M279 49q-27 -31 -40 -42.5t-24 -11.5q-15 0 -26.5 16.5t-11.5 38.5q0 4 0.5 9.5t2 13.5t3.5 19.5t6 28.5l3 18q-9 -23 -20 -41t-28 -40q-51 -64 -97 -64q-28 0 -44.5 19.5t-16.5 54.5q0 36 15.5 73t40 68t54 50.5t57.5 19.5q39 0 58 -28l5 19l46 19l-46 -179
q-3 -12 -5 -25.5t-2 -20.5q0 -16 6 -26t16 -10q8 0 18.5 7.5t28.5 27.5l7 -8zM206 226q-6 18 -20 28.5t-32 10.5q-22 0 -45.5 -19.5t-43.5 -54.5q-16 -29 -26.5 -62t-10.5 -55q0 -53 37 -53q22 0 47 21t48 59q7 12 12.5 22.5t10.5 23t9.5 27.5t9.5 35zM119 398l29 9l29 -82
l-10 -3z" />
    <glyph glyph-name="aacute" unicode="&#xe1;" horiz-adv-x="325" 
d="M279 49q-27 -31 -40 -42.5t-24 -11.5q-15 0 -26.5 16.5t-11.5 38.5q0 4 0.5 9.5t2 13.5t3.5 19.5t6 28.5l3 18q-9 -23 -20 -41t-28 -40q-51 -64 -97 -64q-28 0 -44.5 19.5t-16.5 54.5q0 36 15.5 73t40 68t54 50.5t57.5 19.5q39 0 58 -28l5 19l46 19l-46 -179
q-3 -12 -5 -25.5t-2 -20.5q0 -16 6 -26t16 -10q8 0 18.5 7.5t28.5 27.5l7 -8zM206 226q-6 18 -20 28.5t-32 10.5q-22 0 -45.5 -19.5t-43.5 -54.5q-16 -29 -26.5 -62t-10.5 -55q0 -53 37 -53q22 0 47 21t48 59q7 12 12.5 22.5t10.5 23t9.5 27.5t9.5 35zM153 326l80 81l32 -9
l-102 -76z" />
    <glyph glyph-name="acircumflex" unicode="&#xe2;" horiz-adv-x="325" 
d="M279 49q-27 -31 -40 -42.5t-24 -11.5q-15 0 -26.5 16.5t-11.5 38.5q0 4 0.5 9.5t2 13.5t3.5 19.5t6 28.5l3 18q-9 -23 -20 -41t-28 -40q-51 -64 -97 -64q-28 0 -44.5 19.5t-16.5 54.5q0 36 15.5 73t40 68t54 50.5t57.5 19.5q39 0 58 -28l5 19l46 19l-46 -179
q-3 -12 -5 -25.5t-2 -20.5q0 -16 6 -26t16 -10q8 0 18.5 7.5t28.5 27.5l7 -8zM206 226q-6 18 -20 28.5t-32 10.5q-22 0 -45.5 -19.5t-43.5 -54.5q-16 -29 -26.5 -62t-10.5 -55q0 -53 37 -53q22 0 47 21t48 59q7 12 12.5 22.5t10.5 23t9.5 27.5t9.5 35zM108 337l75 48l57 -48
l-6 -7l-57 23l-66 -23z" />
    <glyph glyph-name="atilde" unicode="&#xe3;" horiz-adv-x="325" 
d="M279 49q-27 -31 -40 -42.5t-24 -11.5q-15 0 -26.5 16.5t-11.5 38.5q0 4 0.5 9.5t2 13.5t3.5 19.5t6 28.5l3 18q-9 -23 -20 -41t-28 -40q-51 -64 -97 -64q-28 0 -44.5 19.5t-16.5 54.5q0 36 15.5 73t40 68t54 50.5t57.5 19.5q39 0 58 -28l5 19l46 19l-46 -179
q-3 -12 -5 -25.5t-2 -20.5q0 -16 6 -26t16 -10q8 0 18.5 7.5t28.5 27.5l7 -8zM206 226q-6 18 -20 28.5t-32 10.5q-22 0 -45.5 -19.5t-43.5 -54.5q-16 -29 -26.5 -62t-10.5 -55q0 -53 37 -53q22 0 47 21t48 59q7 12 12.5 22.5t10.5 23t9.5 27.5t9.5 35zM104 343
q14 15 28.5 24t25.5 9q7 0 12 -2t20 -13q12 -9 19 -9q6 0 15.5 5.5t18.5 15.5l7 -7q-16 -15 -30.5 -24t-24.5 -9q-6 0 -10 1.5t-10 6.5l-11 9q-11 8 -18 8q-14 0 -35 -21z" />
    <glyph glyph-name="adieresis" unicode="&#xe4;" horiz-adv-x="325" 
d="M279 49q-27 -31 -40 -42.5t-24 -11.5q-15 0 -26.5 16.5t-11.5 38.5q0 4 0.5 9.5t2 13.5t3.5 19.5t6 28.5l3 18q-9 -23 -20 -41t-28 -40q-51 -64 -97 -64q-28 0 -44.5 19.5t-16.5 54.5q0 36 15.5 73t40 68t54 50.5t57.5 19.5q39 0 58 -28l5 19l46 19l-46 -179
q-3 -12 -5 -25.5t-2 -20.5q0 -16 6 -26t16 -10q8 0 18.5 7.5t28.5 27.5l7 -8zM206 226q-6 18 -20 28.5t-32 10.5q-22 0 -45.5 -19.5t-43.5 -54.5q-16 -29 -26.5 -62t-10.5 -55q0 -53 37 -53q22 0 47 21t48 59q7 12 12.5 22.5t10.5 23t9.5 27.5t9.5 35zM140 378
q9 0 15.5 -6.5t6.5 -16.5q0 -9 -6.5 -16t-15.5 -7q-10 0 -17 7t-7 16q0 10 7 16.5t17 6.5zM216 378q9 0 16 -6.5t7 -16.5q0 -9 -7 -16t-16 -7q-10 0 -16.5 7t-6.5 16q0 10 6.5 16.5t16.5 6.5z" />
    <glyph glyph-name="aring" unicode="&#xe5;" horiz-adv-x="325" 
d="M279 49q-27 -31 -40 -42.5t-24 -11.5q-15 0 -26.5 16.5t-11.5 38.5q0 4 0.5 9.5t2 13.5t3.5 19.5t6 28.5l3 18q-9 -23 -20 -41t-28 -40q-51 -64 -97 -64q-28 0 -44.5 19.5t-16.5 54.5q0 36 15.5 73t40 68t54 50.5t57.5 19.5q39 0 58 -28l5 19l46 19l-46 -179
q-3 -12 -5 -25.5t-2 -20.5q0 -16 6 -26t16 -10q8 0 18.5 7.5t28.5 27.5l7 -8zM206 226q-6 18 -20 28.5t-32 10.5q-22 0 -45.5 -19.5t-43.5 -54.5q-16 -29 -26.5 -62t-10.5 -55q0 -53 37 -53q22 0 47 21t48 59q7 12 12.5 22.5t10.5 23t9.5 27.5t9.5 35zM180 401q16 0 27 -11
t11 -28q0 -16 -11 -27t-27 -11q-17 0 -28 11t-11 27q0 17 11 28t28 11zM180 386q-11 0 -17.5 -6.5t-6.5 -17.5q0 -10 6.5 -16.5t16.5 -6.5q11 0 17.5 6.5t6.5 16.5q0 11 -6.5 17.5t-16.5 6.5z" />
    <glyph glyph-name="ae" unicode="&#xe6;" horiz-adv-x="416" 
d="M369 69q-23 -37 -54 -57t-65 -20q-38 0 -62 25t-24 64v4q-22 -43 -53.5 -67.5t-64.5 -24.5q-28 0 -43.5 14t-15.5 40q0 48 51 82.5t142 50.5q1 7 3 10q4 16 4.5 21.5t0.5 13.5q0 43 -39 43q-27 0 -47 -18.5t-20 -44.5v-5.5t1 -7.5q-8 -2 -11 -2q-22 0 -22 22q0 13 8 25.5
t22 22t31.5 15t37.5 5.5q60 0 69 -52q19 26 43 40t50 14q20 0 33 -11t13 -29q0 -19 -12 -40t-33 -40t-49 -35t-59 -26v-5q0 -35 18 -58t46 -23q48 0 92 61zM176 166q-20 -2 -43 -9.5t-44 -19.5q-29 -15 -45.5 -37.5t-16.5 -45.5q0 -17 10.5 -28t26.5 -11q35 0 65.5 41
t46.5 110zM204 113q28 12 44 22.5t34 29.5q45 45 45 81q0 22 -24 22q-15 0 -31 -12t-29 -34q-17 -28 -27 -57t-12 -52z" />
    <glyph glyph-name="ccedilla" unicode="&#xe7;" horiz-adv-x="239" 
d="M15 -94q10 -8 22 -8q14 0 25 10.5t11 24.5q0 15 -13 15q-8 0 -13 -4l-10 5l25 44q-35 5 -55 30t-20 64q0 34 13.5 69t35.5 63t49 45.5t53 17.5q23 0 36.5 -13t13.5 -33t-14.5 -37t-31.5 -17q-7 0 -13 6q14 7 23 21t9 32q0 13 -7.5 21t-18.5 8q-18 0 -37 -15.5t-34 -40
t-24.5 -55t-9.5 -60.5q0 -36 17.5 -58.5t44.5 -22.5q24 0 45.5 14t47.5 47l7 -6q-30 -42 -56.5 -60t-61.5 -20l-17 -32q5 1 12 1q12 0 19.5 -8t7.5 -21q0 -20 -14 -33t-37 -13q-21 0 -35 10z" />
    <glyph glyph-name="egrave" unicode="&#xe8;" horiz-adv-x="242" 
d="M195 69q-31 -41 -59.5 -59t-61.5 -18q-40 0 -63.5 26.5t-23.5 70.5q0 33 13.5 67.5t35.5 62.5t48.5 45.5t52.5 17.5q20 0 33 -11.5t13 -30.5q0 -38 -41 -75.5t-112 -63.5v-9q0 -34 18.5 -55t47.5 -21q23 0 44 14t47 46zM30 113q29 13 47.5 25t33.5 27q20 20 31.5 42.5
t11.5 39.5q0 23 -21 23q-16 0 -33 -13.5t-31.5 -36t-25 -50.5t-13.5 -57zM78 398l29 9l29 -82l-10 -3z" />
    <glyph glyph-name="eacute" unicode="&#xe9;" horiz-adv-x="242" 
d="M195 69q-31 -41 -59.5 -59t-61.5 -18q-40 0 -63.5 26.5t-23.5 70.5q0 33 13.5 67.5t35.5 62.5t48.5 45.5t52.5 17.5q20 0 33 -11.5t13 -30.5q0 -38 -41 -75.5t-112 -63.5v-9q0 -34 18.5 -55t47.5 -21q23 0 44 14t47 46zM30 113q29 13 47.5 25t33.5 27q20 20 31.5 42.5
t11.5 39.5q0 23 -21 23q-16 0 -33 -13.5t-31.5 -36t-25 -50.5t-13.5 -57zM112 326l80 81l32 -9l-102 -76z" />
    <glyph glyph-name="ecircumflex" unicode="&#xea;" horiz-adv-x="242" 
d="M195 69q-31 -41 -59.5 -59t-61.5 -18q-40 0 -63.5 26.5t-23.5 70.5q0 33 13.5 67.5t35.5 62.5t48.5 45.5t52.5 17.5q20 0 33 -11.5t13 -30.5q0 -38 -41 -75.5t-112 -63.5v-9q0 -34 18.5 -55t47.5 -21q23 0 44 14t47 46zM30 113q29 13 47.5 25t33.5 27q20 20 31.5 42.5
t11.5 39.5q0 23 -21 23q-16 0 -33 -13.5t-31.5 -36t-25 -50.5t-13.5 -57zM67 337l75 48l57 -48l-6 -7l-57 23l-66 -23z" />
    <glyph glyph-name="edieresis" unicode="&#xeb;" horiz-adv-x="242" 
d="M195 69q-31 -41 -59.5 -59t-61.5 -18q-40 0 -63.5 26.5t-23.5 70.5q0 33 13.5 67.5t35.5 62.5t48.5 45.5t52.5 17.5q20 0 33 -11.5t13 -30.5q0 -38 -41 -75.5t-112 -63.5v-9q0 -34 18.5 -55t47.5 -21q23 0 44 14t47 46zM30 113q29 13 47.5 25t33.5 27q20 20 31.5 42.5
t11.5 39.5q0 23 -21 23q-16 0 -33 -13.5t-31.5 -36t-25 -50.5t-13.5 -57zM99 378q9 0 15.5 -6.5t6.5 -16.5q0 -9 -6.5 -16t-15.5 -7q-10 0 -17 7t-7 16q0 10 7 16.5t17 6.5zM175 378q9 0 16 -6.5t7 -16.5q0 -9 -7 -16t-16 -7q-10 0 -16.5 7t-6.5 16q0 10 6.5 16.5t16.5 6.5z
" />
    <glyph glyph-name="igrave" unicode="&#xec;" horiz-adv-x="144" 
d="M102 50q-14 -17 -24 -27.5t-17.5 -16.5t-13 -8.5t-11.5 -2.5q-15 0 -25.5 15.5t-10.5 37.5q0 8 1 18.5t5 28.5l31 171l48 20l-44 -161q-4 -16 -7 -34.5t-3 -28.5q0 -16 5.5 -26t13.5 -10q15 0 49 37l7 -8zM23 398l29 9l29 -82l-10 -3z" />
    <glyph glyph-name="iacute" unicode="&#xed;" horiz-adv-x="144" 
d="M102 50q-14 -17 -24 -27.5t-17.5 -16.5t-13 -8.5t-11.5 -2.5q-15 0 -25.5 15.5t-10.5 37.5q0 8 1 18.5t5 28.5l31 171l48 20l-44 -161q-4 -16 -7 -34.5t-3 -28.5q0 -16 5.5 -26t13.5 -10q15 0 49 37l7 -8zM57 326l80 81l32 -9l-102 -76z" />
    <glyph glyph-name="icircumflex" unicode="&#xee;" horiz-adv-x="144" 
d="M102 50q-14 -17 -24 -27.5t-17.5 -16.5t-13 -8.5t-11.5 -2.5q-15 0 -25.5 15.5t-10.5 37.5q0 8 1 18.5t5 28.5l31 171l48 20l-44 -161q-4 -16 -7 -34.5t-3 -28.5q0 -16 5.5 -26t13.5 -10q15 0 49 37l7 -8zM12 337l75 48l57 -48l-6 -7l-57 23l-66 -23z" />
    <glyph glyph-name="idieresis" unicode="&#xef;" horiz-adv-x="144" 
d="M102 50q-14 -17 -24 -27.5t-17.5 -16.5t-13 -8.5t-11.5 -2.5q-15 0 -25.5 15.5t-10.5 37.5q0 8 1 18.5t5 28.5l31 171l48 20l-44 -161q-4 -16 -7 -34.5t-3 -28.5q0 -16 5.5 -26t13.5 -10q15 0 49 37l7 -8zM44 378q9 0 15.5 -6.5t6.5 -16.5q0 -9 -6.5 -16t-15.5 -7
q-10 0 -17 7t-7 16q0 10 7 16.5t17 6.5zM120 378q9 0 16 -6.5t7 -16.5q0 -9 -7 -16t-16 -7q-10 0 -16.5 7t-6.5 16q0 10 6.5 16.5t16.5 6.5z" />
    <glyph glyph-name="eth" unicode="&#xf0;" horiz-adv-x="293" 
d="M129 474l77 44q-7 54 -17 95.5t-21 66.5l11 7q14 -26 28.5 -64t26.5 -88l63 36l9 -16l-68 -39q9 -40 14.5 -85.5t5.5 -96.5q0 -47 -4.5 -89t-12.5 -77q-6 -28 -19 -59t-33 -57.5t-47.5 -43.5t-62.5 -17q-42 0 -67 28t-25 75q0 34 14 67.5t37 59.5t51.5 42.5t58.5 16.5
q24 0 38 -15.5t21 -37.5q9 69 9 138q0 36 -2 69.5t-6 64.5l-70 -41zM196 201q0 30 -14.5 49t-37.5 19t-43.5 -18.5t-36.5 -46.5t-25 -61.5t-9 -63.5q0 -36 14.5 -56t40.5 -20q22 0 42.5 18.5t35.5 47.5t24 64t9 68z" />
    <glyph glyph-name="ntilde" unicode="&#xf1;" horiz-adv-x="324" 
d="M43 266l47 20l-42 -179q40 85 80 129.5t77 44.5q19 0 30 -12t11 -32q0 -10 -5 -32l-6 -20l-14 -60l-5 -19q-7 -31 -7 -45q0 -15 5.5 -25t13.5 -10q15 0 49 37l7 -8l-4 -5q-29 -34 -42 -44.5t-24 -10.5q-15 0 -25.5 15.5t-10.5 37.5q0 8 1 19t5 28l19 103q2 11 3 20.5
t1 14.5q0 9 -5.5 15t-14.5 6q-34 0 -83 -73q-12 -18 -22 -35t-19 -35.5t-17 -41t-17 -50.5l-5 -13l-32 -11zM104 343q14 15 28.5 24t25.5 9q7 0 12 -2t20 -13q12 -9 19 -9q6 0 15.5 5.5t18.5 15.5l7 -7q-16 -15 -30.5 -24t-24.5 -9q-6 0 -10 1.5t-10 6.5l-11 9q-11 8 -18 8
q-14 0 -35 -21z" />
    <glyph glyph-name="ograve" unicode="&#xf2;" horiz-adv-x="293" 
d="M-13 94q0 34 14 67.5t37 59.5t51.5 42.5t58.5 16.5q41 0 66.5 -27t25.5 -71q0 -36 -14 -70t-36.5 -61t-51.5 -43.5t-59 -16.5q-42 0 -67 28t-25 75zM196 201q0 30 -14.5 49t-37.5 19q-20 0 -38.5 -13.5t-34.5 -38.5q-18 -29 -29.5 -67.5t-11.5 -70.5q0 -36 14.5 -56
t40.5 -20q43 0 75 60q16 29 26 67.5t10 70.5zM103 398l29 9l29 -82l-10 -3z" />
    <glyph glyph-name="oacute" unicode="&#xf3;" horiz-adv-x="293" 
d="M-13 94q0 34 14 67.5t37 59.5t51.5 42.5t58.5 16.5q41 0 66.5 -27t25.5 -71q0 -36 -14 -70t-36.5 -61t-51.5 -43.5t-59 -16.5q-42 0 -67 28t-25 75zM196 201q0 30 -14.5 49t-37.5 19q-20 0 -38.5 -13.5t-34.5 -38.5q-18 -29 -29.5 -67.5t-11.5 -70.5q0 -36 14.5 -56
t40.5 -20q43 0 75 60q16 29 26 67.5t10 70.5zM137 326l80 81l32 -9l-102 -76z" />
    <glyph glyph-name="ocircumflex" unicode="&#xf4;" horiz-adv-x="293" 
d="M-13 94q0 34 14 67.5t37 59.5t51.5 42.5t58.5 16.5q41 0 66.5 -27t25.5 -71q0 -36 -14 -70t-36.5 -61t-51.5 -43.5t-59 -16.5q-42 0 -67 28t-25 75zM196 201q0 30 -14.5 49t-37.5 19q-20 0 -38.5 -13.5t-34.5 -38.5q-18 -29 -29.5 -67.5t-11.5 -70.5q0 -36 14.5 -56
t40.5 -20q43 0 75 60q16 29 26 67.5t10 70.5zM92 337l75 48l57 -48l-6 -7l-57 23l-66 -23z" />
    <glyph glyph-name="otilde" unicode="&#xf5;" horiz-adv-x="293" 
d="M-13 94q0 34 14 67.5t37 59.5t51.5 42.5t58.5 16.5q41 0 66.5 -27t25.5 -71q0 -36 -14 -70t-36.5 -61t-51.5 -43.5t-59 -16.5q-42 0 -67 28t-25 75zM196 201q0 30 -14.5 49t-37.5 19q-20 0 -38.5 -13.5t-34.5 -38.5q-18 -29 -29.5 -67.5t-11.5 -70.5q0 -36 14.5 -56
t40.5 -20q43 0 75 60q16 29 26 67.5t10 70.5zM88 343q14 15 28.5 24t25.5 9q7 0 12 -2t20 -13q12 -9 19 -9q6 0 15.5 5.5t18.5 15.5l7 -7q-16 -15 -30.5 -24t-24.5 -9q-6 0 -10 1.5t-10 6.5l-11 9q-11 8 -18 8q-14 0 -35 -21z" />
    <glyph glyph-name="odieresis" unicode="&#xf6;" horiz-adv-x="293" 
d="M-13 94q0 34 14 67.5t37 59.5t51.5 42.5t58.5 16.5q41 0 66.5 -27t25.5 -71q0 -36 -14 -70t-36.5 -61t-51.5 -43.5t-59 -16.5q-42 0 -67 28t-25 75zM196 201q0 30 -14.5 49t-37.5 19q-20 0 -38.5 -13.5t-34.5 -38.5q-18 -29 -29.5 -67.5t-11.5 -70.5q0 -36 14.5 -56
t40.5 -20q43 0 75 60q16 29 26 67.5t10 70.5zM124 378q9 0 15.5 -6.5t6.5 -16.5q0 -9 -6.5 -16t-15.5 -7q-10 0 -17 7t-7 16q0 10 7 16.5t17 6.5zM200 378q9 0 16 -6.5t7 -16.5q0 -9 -7 -16t-16 -7q-10 0 -16.5 7t-6.5 16q0 10 6.5 16.5t16.5 6.5z" />
    <glyph glyph-name="divide" unicode="&#xf7;" horiz-adv-x="400" 
d="M200 409q-16 0 -26 10t-10 27t9.5 27.5t26.5 10.5t26.5 -10.5t9.5 -27.5t-9.5 -27t-26.5 -10zM30 286h340v-38h-340v38zM200 50q-16 0 -26 10t-10 27t9.5 27.5t26.5 10.5t26.5 -10.5t9.5 -27.5t-9.5 -27t-26.5 -10z" />
    <glyph glyph-name="oslash" unicode="&#xf8;" horiz-adv-x="293" 
d="M-46 -4l45 43q-12 22 -12 54q0 34 14 68t37 60t51.5 42.5t58.5 16.5q44 0 70 -32l45 42l10 -10l-46 -44q13 -22 13 -54q0 -36 -14 -70t-36.5 -61t-51.5 -43.5t-59 -16.5q-47 0 -72 36l-44 -41zM32 51q5 -23 19 -35.5t34 -12.5q43 0 75 60q16 29 26 67.5t10 70.5v6z
M193 224q-5 21 -18 33t-31 12q-24 0 -46.5 -19.5t-39.5 -55.5q-13 -29 -20.5 -59t-7.5 -56v-10z" />
    <glyph glyph-name="ugrave" unicode="&#xf9;" horiz-adv-x="301" 
d="M257 50q-29 -34 -42 -44.5t-24 -10.5q-15 0 -25.5 15.5t-10.5 37.5v6t1 8q-51 -67 -101 -67q-26 0 -40.5 14t-14.5 38q0 10 1.5 21t3.5 25l34 173l47 20l-47 -189q-4 -15 -5.5 -24.5t-1.5 -18.5q0 -17 10.5 -27.5t28.5 -10.5q42 0 86 68l2 3q1 2 1 3.5t1 4.5l31 171
l47 20l-43 -161q-5 -16 -7.5 -34.5t-2.5 -28.5q0 -16 5 -26t14 -10q15 0 49 37l7 -8zM97 398l29 9l29 -82l-10 -3z" />
    <glyph glyph-name="uacute" unicode="&#xfa;" horiz-adv-x="301" 
d="M257 50q-29 -34 -42 -44.5t-24 -10.5q-15 0 -25.5 15.5t-10.5 37.5v6t1 8q-51 -67 -101 -67q-26 0 -40.5 14t-14.5 38q0 10 1.5 21t3.5 25l34 173l47 20l-47 -189q-4 -15 -5.5 -24.5t-1.5 -18.5q0 -17 10.5 -27.5t28.5 -10.5q42 0 86 68l2 3q1 2 1 3.5t1 4.5l31 171
l47 20l-43 -161q-5 -16 -7.5 -34.5t-2.5 -28.5q0 -16 5 -26t14 -10q15 0 49 37l7 -8zM131 326l80 81l32 -9l-102 -76z" />
    <glyph glyph-name="ucircumflex" unicode="&#xfb;" horiz-adv-x="301" 
d="M257 50q-29 -34 -42 -44.5t-24 -10.5q-15 0 -25.5 15.5t-10.5 37.5v6t1 8q-51 -67 -101 -67q-26 0 -40.5 14t-14.5 38q0 10 1.5 21t3.5 25l34 173l47 20l-47 -189q-4 -15 -5.5 -24.5t-1.5 -18.5q0 -17 10.5 -27.5t28.5 -10.5q42 0 86 68l2 3q1 2 1 3.5t1 4.5l31 171
l47 20l-43 -161q-5 -16 -7.5 -34.5t-2.5 -28.5q0 -16 5 -26t14 -10q15 0 49 37l7 -8zM86 337l75 48l57 -48l-6 -7l-57 23l-66 -23z" />
    <glyph glyph-name="udieresis" unicode="&#xfc;" horiz-adv-x="301" 
d="M257 50q-29 -34 -42 -44.5t-24 -10.5q-15 0 -25.5 15.5t-10.5 37.5v6t1 8q-51 -67 -101 -67q-26 0 -40.5 14t-14.5 38q0 10 1.5 21t3.5 25l34 173l47 20l-47 -189q-4 -15 -5.5 -24.5t-1.5 -18.5q0 -17 10.5 -27.5t28.5 -10.5q42 0 86 68l2 3q1 2 1 3.5t1 4.5l31 171
l47 20l-43 -161q-5 -16 -7.5 -34.5t-2.5 -28.5q0 -16 5 -26t14 -10q15 0 49 37l7 -8zM118 378q9 0 15.5 -6.5t6.5 -16.5q0 -9 -6.5 -16t-15.5 -7q-10 0 -17 7t-7 16q0 10 7 16.5t17 6.5zM194 378q9 0 16 -6.5t7 -16.5q0 -9 -7 -16t-16 -7q-10 0 -16.5 7t-6.5 16
q0 10 6.5 16.5t16.5 6.5z" />
    <glyph glyph-name="yacute" unicode="&#xfd;" horiz-adv-x="292" 
d="M-33 -141q27 -30 64 -30q38 0 60.5 29.5t37.5 97.5l23 101q-54 -63 -97 -63q-26 0 -40.5 15.5t-14.5 42.5q0 15 5 38l33 176l47 20l-47 -197q-3 -14 -4.5 -21.5t-1.5 -14.5q0 -17 10.5 -27t26.5 -10q18 0 39 15t49 48l42 187l46 20l-71 -287q-7 -27 -12.5 -47.5
t-11.5 -35.5t-12.5 -26t-14.5 -21q-47 -62 -117 -62q-38 0 -63 20zM131 326l80 81l32 -9l-102 -76z" />
    <glyph glyph-name="thorn" unicode="&#xfe;" horiz-adv-x="315" 
d="M128 663l52 25l-123 -541v-1q36 72 69.5 104.5t71.5 32.5q30 0 47 -21.5t17 -59.5t-15.5 -78t-43.5 -73q-50 -61 -111 -61q-40 0 -66 20l-46 -204h-27zM37 43q20 -41 58 -41q53 0 94 88q32 72 32 118q0 26 -10 40.5t-27 14.5q-14 0 -30.5 -10.5t-31.5 -28.5
q-14 -18 -28.5 -39.5t-25.5 -45.5q-4 -8 -7 -15.5t-6 -16.5t-6.5 -21t-8.5 -30z" />
    <glyph glyph-name="ydieresis" unicode="&#xff;" horiz-adv-x="292" 
d="M-33 -141q27 -30 64 -30q38 0 60.5 29.5t37.5 97.5l23 101q-54 -63 -97 -63q-26 0 -40.5 15.5t-14.5 42.5q0 15 5 38l33 176l47 20l-47 -197q-3 -14 -4.5 -21.5t-1.5 -14.5q0 -17 10.5 -27t26.5 -10q18 0 39 15t49 48l42 187l46 20l-71 -287q-7 -27 -12.5 -47.5
t-11.5 -35.5t-12.5 -26t-14.5 -21q-47 -62 -117 -62q-38 0 -63 20zM118 378q9 0 15.5 -6.5t6.5 -16.5q0 -9 -6.5 -16t-15.5 -7q-10 0 -17 7t-7 16q0 10 7 16.5t17 6.5zM194 378q9 0 16 -6.5t7 -16.5q0 -9 -7 -16t-16 -7q-10 0 -16.5 7t-6.5 16q0 10 6.5 16.5t16.5 6.5z" />
    <glyph glyph-name="dotlessi" unicode="&#x131;" horiz-adv-x="144" 
d="M102 50q-14 -17 -24 -27.5t-17.5 -16.5t-13 -8.5t-11.5 -2.5q-15 0 -25.5 15.5t-10.5 37.5q0 8 1 18.5t5 28.5l31 171l48 20l-44 -161q-4 -16 -7 -34.5t-3 -28.5q0 -16 5.5 -26t13.5 -10q15 0 49 37l7 -8z" />
    <glyph glyph-name="OE" unicode="&#x152;" horiz-adv-x="953" 
d="M858 48q-63 -29 -122.5 -44.5t-108.5 -15.5q-77 0 -123 30.5t-52 84.5q-49 -54 -108 -82.5t-123 -28.5q-47 0 -85.5 16t-65.5 46t-42 72t-15 94q0 84 30 162t79.5 138t113.5 96.5t133 36.5q47 0 84 -17.5t63 -49t40 -74.5t14 -93q0 -63 -20 -129q25 20 60 40t71 38
q-52 9 -52 55q0 65 113 147q56 40 108 62t88 22q26 0 40.5 -14t14.5 -37q0 -35 -24 -79.5t-66 -85.5l-26 28q37 40 57 75t20 59q0 33 -41 33q-25 0 -62.5 -15t-73.5 -40q-50 -34 -78 -71t-28 -67q0 -14 8.5 -27t22.5 -18q9 -3 18 -4t29 -2h9l-7 -32q-21 -9 -49.5 -23.5
t-58.5 -33.5t-59.5 -41.5t-52.5 -48t-37 -53.5t-14 -57q0 -40 30.5 -65t80.5 -25q51 0 118.5 23t160.5 74zM521 439q0 92 -43 144t-120 52q-63 0 -119 -40t-98 -114q-16 -29 -29.5 -62.5t-23 -69t-14.5 -71.5t-5 -69q0 -92 44 -146t118 -54q34 0 68 13t65 37t57 58.5
t46 76.5q12 26 22 57t17 63.5t11 64.5t4 60z" />
    <glyph glyph-name="oe" unicode="&#x153;" horiz-adv-x="435" 
d="M388 69q-49 -77 -119 -77q-68 0 -82 67q-15 -29 -45 -48.5t-61 -19.5q-42 0 -68 27.5t-26 72.5q0 36 13.5 70t35.5 60.5t51 42.5t59 16q66 0 81 -68q17 32 45 51t57 19q20 0 33 -12t13 -32q0 -19 -12 -39.5t-33 -39t-48.5 -34t-58.5 -24.5q0 -33 8 -50q8 -16 23 -26
t33 -10q48 0 93 61zM194 201q0 31 -14.5 49.5t-37.5 18.5q-20 0 -38.5 -13.5t-33.5 -36.5q-17 -29 -28.5 -68.5t-11.5 -72.5q0 -35 13.5 -54.5t39.5 -19.5q21 0 40.5 17t35.5 45t25.5 63.5t9.5 71.5zM223 113q29 13 45.5 23.5t33.5 27.5q21 20 32.5 42.5t11.5 39.5
q0 10 -6 16t-15 6q-16 0 -32 -12.5t-30 -34t-25 -49.5t-15 -59z" />
    <glyph glyph-name="Scaron" unicode="&#x160;" horiz-adv-x="474" 
d="M14 62q42 -24 80.5 -35t79.5 -11q39 0 73 11t59 30t39.5 45t14.5 55q0 19 -5 35t-17 31.5t-31.5 32t-49.5 36.5q-28 18 -44.5 29.5t-27 18.5t-17 12t-13.5 11q-19 17 -27.5 34t-8.5 40q0 77 100 147q45 32 98.5 51t100.5 19q45 0 70 -17t25 -47q0 -37 -30.5 -78
t-84.5 -77l-38 22q53 35 82.5 72.5t29.5 66.5q0 20 -16 31t-46 11q-37 0 -80.5 -14.5t-83.5 -40.5q-86 -54 -86 -120q0 -14 5.5 -26t19 -26t37 -31.5t59.5 -41.5q20 -13 33.5 -22.5t23.5 -17.5t17 -15t13 -16q27 -35 27 -77q0 -34 -17 -68.5t-49 -63.5q-75 -70 -206 -70
q-86 0 -136 25zM376 747l6 7l57 -23l66 23l3 -7l-75 -48z" />
    <glyph glyph-name="scaron" unicode="&#x161;" horiz-adv-x="213" 
d="M-13 63q23 -50 68 -50q25 0 42.5 15.5t17.5 36.5q0 15 -9 26.5t-39 35.5t-39.5 37t-9.5 31q0 17 8 32.5t21.5 27.5t31 19t36.5 7q22 0 37 -11t15 -28q0 -22 -19 -30q-4 23 -18 35.5t-37 12.5q-20 0 -35 -12.5t-15 -29.5q0 -21 26 -41l28 -23q23 -17 32.5 -33t9.5 -33
q0 -20 -8.5 -37.5t-23 -30.5t-34 -21t-40.5 -8q-43 0 -73 40zM60 378l6 7l57 -23l66 23l3 -7l-75 -48z" />
    <glyph glyph-name="Ydieresis" unicode="&#x178;" horiz-adv-x="508" 
d="M37 29q24 -9 47.5 -13t49.5 -4q63 0 110 28t85 90q20 30 36 65t31 80q4 13 8.5 25.5t9 28.5t10.5 37.5t14 51.5l4 14l-7 -13q-12 -24 -22 -42.5t-21.5 -35.5t-24.5 -33.5t-29 -35.5q-31 -38 -55 -54.5t-47 -16.5q-37 0 -51 36q-6 18 -6 59v21l9 251v16q0 58 -31 58
q-29 0 -53 -58t-38 -164l-2 -12l-37 24q3 21 8 43t11.5 44t14.5 41t16 34q37 63 80 63q36 0 55.5 -35t19.5 -103q0 -6 -0.5 -13.5t-0.5 -15.5l-6 -164q-1 -8 -1 -15.5v-12.5q0 -61 37 -61q18 0 37 14.5t47 48.5q52 64 87 145.5t48 169.5l55 25l-3 -15q-14 -76 -32.5 -148
t-39.5 -135t-43.5 -114t-44.5 -84q-54 -81 -126 -119.5t-172 -38.5q-17 0 -29.5 1t-24.5 4zM316 747q9 0 15.5 -6.5t6.5 -16.5q0 -9 -6.5 -16t-15.5 -7q-10 0 -17 7t-7 16q0 10 7 16.5t17 6.5zM392 747q9 0 16 -6.5t7 -16.5q0 -9 -7 -16t-16 -7q-10 0 -16.5 7t-6.5 16
q0 10 6.5 16.5t16.5 6.5z" />
    <glyph glyph-name="Zcaron" unicode="&#x17d;" horiz-adv-x="571" 
d="M195 66q-50 -38 -85 -54.5t-69 -16.5q-26 0 -43.5 14.5t-17.5 36.5q0 33 33.5 52.5t90.5 19.5q49 0 107 -14l7 6q56 50 106 107t93 117t77 123t58 125l-9 2q-83 19 -157.5 30t-124.5 11q-81 0 -117 -24q-17 -11 -26.5 -26.5t-9.5 -30.5q0 -33 40.5 -53t129.5 -31l-37 -35
q-70 11 -108.5 39.5t-38.5 72.5q0 48 47 81q29 21 67.5 30.5t93.5 9.5q68 0 142 -10.5t141 -29.5l6 -2q-9 -26 -23 -56t-30 -62t-34 -63.5t-36 -59.5q-49 -75 -105 -141t-123 -128l-8 -8l12 -3q13 -5 25.5 -8.5t24.5 -7.5q27 -9 43 -14.5t26.5 -8.5l17.5 -5t16 -4
q25 -5 47 -8t42 -3q9 0 16.5 0.5t20.5 1.5l-26 -47q-8 -1 -15 -1.5t-10 -0.5q-57 0 -135 27zM171 72q-56 17 -99 17q-31 0 -50 -12.5t-19 -32.5q0 -14 11.5 -22.5t28.5 -8.5q25 0 51.5 11.5t67.5 40.5zM314 747l6 7l57 -23l66 23l3 -7l-75 -48z" />
    <glyph glyph-name="zcaron" unicode="&#x17e;" horiz-adv-x="231" 
d="M-33 12l6 8q9 10 22 25t26.5 31t25.5 30.5t19 23.5l45 56q17 21 25 32t17 24h-126l7 35h160l4 -11l-8 -9l-55 -67q-28 -33 -46.5 -56t-31.5 -39.5t-22.5 -29.5t-19.5 -27q14 -2 27 -2.5t34 -0.5q15 0 34 0.5t31 1.5h13.5t16.5 1l-5 -39h-193zM69 378l6 7l57 -23l66 23
l3 -7l-75 -48z" />
    <glyph glyph-name="florin" unicode="&#x192;" horiz-adv-x="249" 
d="M-104 -79q22 -17 40 -17t34.5 14t27.5 38q7 15 12.5 33t16.5 57l60 213h-47l4 17h47l19 65q7 27 13.5 47t14 36t16 29t19.5 26q50 58 106 58q14 0 27 -5l-16 -43q-18 21 -44 21q-25 0 -41.5 -19t-30.5 -62l-8 -27q-3 -9 -4.5 -15t-2.5 -9l-29 -102h75l-4 -17h-75
l-33 -118q-4 -15 -7.5 -26t-6.5 -21.5t-7 -22t-9 -27.5q-10 -30 -19 -52t-19 -38.5t-22 -29t-27 -22.5q-38 -26 -73 -26q-7 0 -11.5 0.5t-11.5 2.5z" />
    <glyph glyph-name="circumflex" unicode="&#x2c6;" 
d="M194 337l75 48l57 -48l-6 -7l-57 23l-66 -23z" />
    <glyph glyph-name="caron" unicode="&#x2c7;" 
d="M202 378l6 7l57 -23l66 23l3 -7l-75 -48z" />
    <glyph glyph-name="ring" unicode="&#x2da;" 
d="M266 401q16 0 27 -11t11 -28q0 -16 -11 -27t-27 -11q-17 0 -28 11t-11 27q0 17 11 28t28 11zM266 386q-11 0 -17.5 -6.5t-6.5 -17.5q0 -10 6.5 -16.5t16.5 -6.5q11 0 17.5 6.5t6.5 16.5q0 11 -6.5 17.5t-16.5 6.5z" />
    <glyph glyph-name="tilde" unicode="&#x2dc;" 
d="M190 343q14 15 28.5 24t25.5 9q7 0 12 -2t20 -13q12 -9 19 -9q6 0 15.5 5.5t18.5 15.5l7 -7q-16 -15 -30.5 -24t-24.5 -9q-6 0 -10 1.5t-10 6.5l-11 9q-11 8 -18 8q-14 0 -35 -21z" />
    <glyph glyph-name="uni03BC" unicode="&#x3bc;" horiz-adv-x="276" 
d="M-23 -93q23 1 30 5.5t11 21.5q0 3 5 26t12 56t15 71.5t15 71.5t12 56t6 26q2 10 2 12q0 9 -7 11t-25 3l3 13q17 0 35 0.5t35 1.5l-48 -225q-1 -4 -1 -7.5v-6.5q0 -16 8 -24t22 -8q13 0 27 8q20 12 34.5 35t19.5 48q1 7 5.5 27t9.5 42.5t9 42.5t6 27q1 5 1 12q0 9 -6.5 11
t-24.5 3l3 13q17 0 35 0.5t35 1.5l-52 -243q-2 -10 -2 -12q0 -9 7.5 -11.5t25.5 -3.5l-2 -12q-18 -1 -35.5 -1.5t-35.5 -0.5l9 43h-1q-16 -20 -34.5 -34t-47.5 -14q-8 0 -15 1t-12 5l-22 -104h-69z" />
    <glyph glyph-name="endash" unicode="&#x2013;" horiz-adv-x="407" 
d="M28 160h289l-4 -22h-290z" />
    <glyph glyph-name="emdash" unicode="&#x2014;" horiz-adv-x="1000" 
d="M28 160h882l-4 -22h-883z" />
    <glyph glyph-name="quoteleft" unicode="&#x2018;" horiz-adv-x="232" 
d="M216 653q-32 -26 -49 -47.5t-19 -39.5q11 11 23 11q23 0 23 -24q0 -16 -10 -27t-25 -11q-14 0 -23 9.5t-9 25.5q0 25 23 56.5t60 57.5z" />
    <glyph glyph-name="quoteright" unicode="&#x2019;" horiz-adv-x="232" 
d="M116 515q65 51 68 86q-10 -10 -22 -10q-25 0 -25 24q0 16 11 27t25 11t22.5 -9.5t8.5 -25.5q0 -25 -22.5 -56.5t-59.5 -57.5z" />
    <glyph glyph-name="quotesinglbase" unicode="&#x201a;" horiz-adv-x="232" 
d="M4 -61q65 52 68 86q-10 -10 -22 -10q-24 0 -24 24q0 16 10.5 27t24.5 11t22.5 -9.5t8.5 -25.5q0 -25 -22 -56.5t-59 -57.5z" />
    <glyph glyph-name="quotedblleft" unicode="&#x201c;" horiz-adv-x="316" 
d="M300 653q-64 -51 -68 -87q11 11 23 11q11 0 17.5 -6.5t6.5 -17.5q0 -16 -10.5 -27t-25.5 -11q-14 0 -22.5 9.5t-8.5 25.5q0 25 22.5 56.5t59.5 57.5zM216 653q-32 -26 -49 -47.5t-19 -39.5q11 11 23 11q23 0 23 -24q0 -16 -10 -27t-25 -11q-14 0 -22.5 9.5t-8.5 25.5
q0 25 22.5 56.5t59.5 57.5z" />
    <glyph glyph-name="quotedblright" unicode="&#x201d;" horiz-adv-x="316" 
d="M116 515q65 51 68 86q-10 -10 -22 -10q-24 0 -24 24q0 16 10.5 27t24.5 11t22.5 -9.5t8.5 -25.5q0 -25 -22.5 -56.5t-59.5 -57.5zM200 515q65 51 68 86q-9 -10 -22 -10q-24 0 -24 24q0 16 10.5 27t24.5 11t23 -9.5t9 -25.5q0 -25 -23 -56.5t-59 -57.5z" />
    <glyph glyph-name="quotedblbase" unicode="&#x201e;" horiz-adv-x="316" 
d="M4 -61q65 52 68 86q-10 -10 -22 -10q-24 0 -24 24q0 16 10.5 27t24.5 11t22.5 -9.5t8.5 -25.5q0 -25 -22 -56.5t-59 -57.5zM88 -61q65 51 69 86q-7 -6 -11.5 -8t-11.5 -2q-24 0 -24 24q0 16 10.5 27t24.5 11t23 -9.5t9 -25.5q0 -25 -22.5 -56.5t-59.5 -57.5z" />
    <glyph glyph-name="dagger" unicode="&#x2020;" horiz-adv-x="360" 
d="M186 433h-130l3 17h130l46 230l52 25l-56 -255h133l-3 -17h-134l-112 -510l-33 -16z" />
    <glyph glyph-name="daggerdbl" unicode="&#x2021;" horiz-adv-x="360" 
d="M131 157h-135l3 17h136l51 259h-130l3 17h130l46 230l52 25l-56 -255h133l-3 -17h-134l-57 -259h134l-3 -17h-135l-51 -234l-33 -16z" />
    <glyph glyph-name="bullet" unicode="&#x2022;" horiz-adv-x="248" 
d="M121 401q28 0 47.5 -19.5t19.5 -48.5q0 -28 -19.5 -47.5t-47.5 -19.5t-48 19.5t-20 47.5q0 29 20 48.5t48 19.5z" />
    <glyph glyph-name="ellipsis" unicode="&#x2026;" horiz-adv-x="1000" 
d="M149 42q0 -20 -12.5 -33.5t-29.5 -13.5q-34 0 -34 34q0 20 12.5 34.5t29.5 14.5q15 0 24.5 -10t9.5 -26zM483 42q0 -20 -12.5 -33.5t-29.5 -13.5q-34 0 -34 34q0 20 12 34.5t29 14.5q16 0 25.5 -10t9.5 -26zM816 42q0 -20 -12.5 -33.5t-29.5 -13.5q-34 0 -34 34
q0 20 12.5 34.5t29.5 14.5q15 0 24.5 -10t9.5 -26z" />
    <glyph glyph-name="perthousand" unicode="&#x2030;" horiz-adv-x="631" 
d="M40 -10l274 390q-16 -11 -29 -15.5t-32 -4.5q-27 0 -58 14q13 -22 13 -57q0 -29 -9 -55t-24 -46t-35 -32t-41 -12q-35 0 -55 23t-20 64q0 28 9 54.5t24.5 47t36 32.5t42.5 12q10 0 18 -2t26 -10q29 -13 43 -17t31 -4q29 0 52.5 15t37.5 43l14 -10l-307 -438zM366 138
q0 -29 -9 -56t-24 -47t-34.5 -32t-41.5 -12q-35 0 -55.5 23t-20.5 64q0 29 9 55.5t24.5 46.5t36 32t42.5 12q33 0 53 -23t20 -63zM564 138q0 -29 -9 -56t-24 -47t-34.5 -32t-41.5 -12q-35 0 -55 23t-20 64q0 29 9 55.5t24.5 46.5t36 32t42.5 12q33 0 52.5 -23.5t19.5 -62.5z
M173 340q0 53 -36 53q-30 0 -50 -39q-13 -26 -20.5 -56.5t-7.5 -55.5q0 -59 38 -59q15 0 28.5 13.5t24 35t17 50t6.5 58.5zM331 159q0 53 -36 53q-31 0 -50 -39q-13 -26 -21 -56.5t-8 -55.5q0 -59 39 -59q15 0 28.5 13.5t24 35t17 50t6.5 58.5zM415 61q0 -59 38 -59
q15 0 28.5 13.5t24 35t17 50t6.5 58.5q0 53 -36 53q-30 0 -50 -39q-13 -26 -20.5 -56.5t-7.5 -55.5z" />
    <glyph glyph-name="guilsinglleft" unicode="&#x2039;" horiz-adv-x="192" 
d="M63 49q-7 27 -21 53.5t-32 46.5q26 22 51.5 47.5t45.5 51.5h9l-61 -99l16 -100h-8z" />
    <glyph glyph-name="guilsinglright" unicode="&#x203a;" horiz-adv-x="192" 
d="M70 149l-15 99h8q7 -27 20.5 -53t32.5 -46q-26 -21 -50 -46.5t-47 -53.5h-9z" />
    <glyph glyph-name="Euro" unicode="&#x20ac;" horiz-adv-x="284" 
d="M241 43q-23 -20 -56 -36t-66 -16q-45 0 -71 35t-26 93q0 14 1 26.5t3 26.5h-48l3 13h48q2 6 3.5 12.5t3.5 13.5h-50l2 11h52q11 29 29 61t42 58.5t53.5 43.5t63.5 17q22 0 42 -12t20 -37q0 -15 -11 -27t-27 -12q-2 0 -4 0.5t-4 0.5q10 14 10 33q0 40 -40 40
q-25 0 -46 -16.5t-38 -41.5t-30 -54t-20 -54h106l-2 -11h-107l-6 -26h107l-2 -13h-107q-3 -24 -3 -48q0 -45 16 -76.5t54 -31.5q26 0 53.5 11.5t46.5 25.5z" />
    <glyph glyph-name="trademark" unicode="&#x2122;" horiz-adv-x="707" 
d="M61 349q25 -11 53 -11q63 0 101 68q7 12 14 28t15 40q11 35 21.5 73.5t15.5 70.5l23 10h-1q-26 2 -55 4t-53 2q-50 0 -75 -14q-7 -5 -12 -11.5t-5 -14.5q0 -32 90 -37l-20 -20q-38 2 -60 17t-22 38q0 15 10.5 27.5t29.5 22.5q16 7 41 11t56 4q13 0 32.5 -1t40 -3
t40.5 -4.5t35 -5.5q2 0 4 -0.5t3 -0.5l-1 -3q18 24 37 24q17 0 26.5 -17t9.5 -46q0 -11 -1 -25.5t-3 -28.5q0 -2 -0.5 -3t-0.5 -2q-1 -5 -2 -13t-5 -28l-6 -27q9 20 20 43.5t24 47.5q46 82 76 82q11 0 18 -7.5t7 -19.5q0 -10 -5 -33l-23 -106q1 2 1.5 3.5t2.5 3.5
q35 75 59.5 107.5t45.5 32.5q12 0 18.5 -7.5t6.5 -19.5q0 -6 -0.5 -12t-3.5 -17v1l-51 -240h-30l54 249l2 6q0 2 0.5 6t0.5 6q0 9 -7 9t-15 -8t-21 -27q-10 -14 -20 -34t-24 -49q-19 -39 -32 -78.5t-22 -79.5h-26l58 265q0 1 0.5 2t0.5 3q1 5 1.5 8t0.5 6q0 10 -7 10
q-12 0 -28 -22t-39 -68q-18 -35 -31.5 -66.5t-25.5 -68.5q-9 -26 -14 -41t-8 -28h-25v5l11 41l3 11l8 32q5 25 9 43.5t7 34t6 30.5t6 33q4 23 6 38t2 25q0 28 -15 28q-8 0 -15.5 -14.5t-15.5 -34.5q-5 -17 -8.5 -34.5t-5.5 -35.5l-23 16q2 19 7 36t12 32h-6q-1 0 -2 0.5
t-2 0.5q-18 4 -46 7l-1 -1v-3q-20 -86 -41 -143.5t-48 -92.5t-62.5 -50t-82.5 -15h-13.5t-14.5 2z" />
    <glyph glyph-name="uniE300" unicode="&#xe300;" 
d="M282 767l29 9l29 -82l-10 -3z" />
    <glyph glyph-name="uniE301" unicode="&#xe301;" 
d="M315 695l80 81l32 -9l-102 -76z" />
    <glyph glyph-name="uniE302" unicode="&#xe302;" 
d="M270 706l75 48l57 -48l-6 -7l-57 23l-66 -23z" />
    <glyph glyph-name="uniE303" unicode="&#xe303;" 
d="M279 747l6 7l57 -23l66 23l3 -7l-75 -48z" />
    <glyph glyph-name="uniE304" unicode="&#xe304;" 
d="M266 712q14 15 28.5 24t25.5 9q7 0 12 -2t20 -13q12 -9 19 -9q6 0 15.5 5.5t18.5 15.5l7 -7q-16 -15 -30.5 -24t-24.5 -9q-6 0 -10 1.5t-10 6.5l-11 9q-11 8 -18 8q-14 0 -35 -21z" />
    <glyph glyph-name="uniE305" unicode="&#xe305;" 
d="M302 747q9 0 15.5 -6.5t6.5 -16.5q0 -9 -6.5 -16t-15.5 -7q-10 0 -17 7t-7 16q0 10 7 16.5t17 6.5zM378 747q9 0 16 -6.5t7 -16.5q0 -9 -7 -16t-16 -7q-10 0 -16.5 7t-6.5 16q0 10 6.5 16.5t16.5 6.5z" />
    <glyph glyph-name="uniE308" unicode="&#xe308;" 
d="M342 770q16 0 27 -11t11 -28q0 -16 -11 -27t-27 -11q-17 0 -28 11t-11 27q0 17 11 28t28 11zM342 755q-11 0 -17.5 -6.5t-6.5 -17.5q0 -10 6.5 -16.5t16.5 -6.5q11 0 17.5 6.5t6.5 16.5q0 11 -6.5 17.5t-16.5 6.5z" />
    <glyph glyph-name="glyph231" horiz-adv-x="0" 
 />
    <glyph glyph-name="glyph235" horiz-adv-x="0" 
 />
    </font>
</defs>
</svg>
